<svg width="1440" height="742" viewBox="0 0 1440 742" fill="none" xmlns="http://www.w3.org/2000/svg">
<path fill-rule="evenodd" clip-rule="evenodd" d="M1118.62 555.65C1078.91 575.704 1034.03 587 986.5 587C891.93 587 807.807 542.272 754.13 472.818C715.817 540.399 643.234 586 560 586C500.514 586 446.468 562.708 406.485 524.748C355.371 616.745 257.206 679 144.5 679C-20.9093 679 -155 544.909 -155 379.5C-155 214.091 -20.9093 80 144.5 80C248.702 80 340.475 133.215 394.126 213.951C434.948 168.551 494.14 140 560 140C617.351 140 669.645 161.65 709.156 197.222C749.005 82.4156 858.128 0 986.5 0C1129.55 0 1248.7 102.342 1274.72 237.803C1307.5 223.77 1343.59 216 1381.5 216C1531.45 216 1653 337.555 1653 487.5C1653 637.445 1531.45 759 1381.5 759C1255.09 759 1148.86 672.61 1118.62 555.65Z" fill="#CAE4FF"/>
<path fill-rule="evenodd" clip-rule="evenodd" d="M1118.62 555.65C1078.91 575.704 1034.03 587 986.5 587C891.93 587 807.807 542.272 754.13 472.818C715.817 540.399 643.234 586 560 586C500.514 586 446.468 562.708 406.485 524.748C355.371 616.745 257.206 679 144.5 679C-20.9093 679 -155 544.909 -155 379.5C-155 214.091 -20.9093 80 144.5 80C248.702 80 340.475 133.215 394.126 213.951C434.948 168.551 494.14 140 560 140C617.351 140 669.645 161.65 709.156 197.222C749.005 82.4156 858.128 0 986.5 0C1129.55 0 1248.7 102.342 1274.72 237.803C1307.5 223.77 1343.59 216 1381.5 216C1531.45 216 1653 337.555 1653 487.5C1653 637.445 1531.45 759 1381.5 759C1255.09 759 1148.86 672.61 1118.62 555.65Z" fill="url(#paint0_linear_440_872)" fill-opacity="0.2"/>
<defs>
<linearGradient id="paint0_linear_440_872" x1="749" y1="45" x2="749" y2="759" gradientUnits="userSpaceOnUse">
<stop stop-color="#FFFBFB"/>
<stop offset="1" stop-color="#1DB9FF"/>
</linearGradient>
</defs>
</svg>
