<svg width="1440" height="250" viewBox="0 0 1440 250" fill="none" xmlns="http://www.w3.org/2000/svg">
<path fill-rule="evenodd" clip-rule="evenodd" d="M1086.64 475.471C1071.55 478.442 1055.96 480 1040 480C1005.57 480 972.839 472.751 943.241 459.697C910.934 590.23 793.018 687 652.5 687C541.911 687 445.322 627.062 393.445 537.9C339.869 588.194 267.782 619 188.5 619C23.0907 619 -111 484.909 -111 319.5C-111 154.091 23.0907 20 188.5 20C299.089 20 395.678 79.9379 447.555 169.1C501.131 118.806 573.218 88 652.5 88C715.255 88 773.502 107.301 821.629 140.29C859.487 57.5131 943.027 0 1040 0C1124.38 0 1198.59 43.5453 1241.38 109.39C1270.42 98.7857 1301.79 93 1334.5 93C1484.45 93 1606 214.555 1606 364.5C1606 514.445 1484.45 636 1334.5 636C1224.09 636 1129.07 570.091 1086.64 475.471Z" fill="#F2F7FF"/>
</svg>
