<svg width="28" height="28" viewBox="0 0 28 28" fill="none" xmlns="http://www.w3.org/2000/svg">
<path fill-rule="evenodd" clip-rule="evenodd" d="M6.57538 21.4246C10.6759 25.5251 17.3241 25.5251 21.4246 21.4246C25.5251 17.3241 25.5251 10.6759 21.4246 6.57538C17.3241 2.47487 10.6759 2.47487 6.57538 6.57538C2.47487 10.6759 2.47487 17.3241 6.57538 21.4246ZM8.22529 12.8333C7.58096 12.8333 7.05863 13.3557 7.05863 14C7.05863 14.6443 7.58096 15.1667 8.22529 15.1667H12.8333L12.8333 19.7747C12.8333 20.419 13.3557 20.9414 14 20.9414C14.6443 20.9414 15.1667 20.419 15.1667 19.7747V15.1667H19.7747C20.419 15.1667 20.9414 14.6443 20.9414 14C20.9414 13.3557 20.419 12.8333 19.7747 12.8333H15.1667L15.1667 8.2253C15.1667 7.58096 14.6443 7.05863 14 7.05863C13.3557 7.05863 12.8333 7.58096 12.8333 8.2253L12.8333 12.8333H8.22529Z" fill="#AAAAAA"/>
</svg>
