<svg width="36" height="36" viewBox="0 0 36 36" fill="none" xmlns="http://www.w3.org/2000/svg">
<path d="M15.0866 8.7245L15.8442 8.65863L15.9832 7.91099L16.1446 7.04232C16.3108 6.14837 17.0907 5.5 18 5.5C18.9093 5.5 19.6892 6.14837 19.8554 7.04232L20.0168 7.91099L20.1558 8.65863L20.9134 8.7245L22.1006 8.82774C24.4185 9.02929 26.2845 10.8089 26.6 13.1086V22.256C26.6 22.5676 26.7212 22.867 26.938 23.0908L28.1551 24.3476C28.697 24.9072 29 25.6556 29 26.4346V27.5326H21.6563C21.0729 27.5326 20.6 28.0055 20.6 28.5889V28.65C20.6 30.0859 19.4359 31.25 18 31.25C16.5641 31.25 15.4 30.0859 15.4 28.65V28.5889C15.4 28.0055 14.9271 27.5326 14.3437 27.5326H8.41421C7.63316 27.5326 7 26.8994 7 26.1184C7 25.5422 7.22412 24.9886 7.62495 24.5747L9.06203 23.0908C9.2788 22.867 9.4 22.5676 9.4 22.256V13.1087C9.71552 10.8089 11.5815 9.02929 13.8994 8.82774L15.0866 8.7245Z" fill="#AAAAAA" stroke="#AAAAAA" stroke-width="2"/>
</svg>
