<svg width="36" height="36" viewBox="0 0 36 36" fill="none" xmlns="http://www.w3.org/2000/svg">
<path fill-rule="evenodd" clip-rule="evenodd" d="M14 14.2812C14 13.2038 14.4214 12.1705 15.1716 11.4086C15.2916 11.2867 15.4185 11.1734 15.5513 11.069C16.2484 10.5208 17.1089 10.2188 18 10.2188C18.8911 10.2188 19.7516 10.5208 20.4488 11.069C20.5815 11.1734 20.7084 11.2867 20.8284 11.4086C21.5786 12.1705 22 13.2038 22 14.2812C22 14.4172 21.9933 14.5525 21.98 14.6867C21.8884 15.6152 21.4839 16.4882 20.8284 17.1539C20.6416 17.3436 20.4382 17.5127 20.2217 17.6595C19.6472 18.0492 18.9804 18.2829 18.2858 18.3334C18.191 18.3403 18.0957 18.3437 18 18.3437C17.9043 18.3437 17.809 18.3403 17.7142 18.3334C17.0196 18.2829 16.3528 18.0492 15.7783 17.6595C15.5618 17.5127 15.3584 17.3436 15.1716 17.1539C14.5161 16.4882 14.1116 15.6152 14.02 14.6867C14.0067 14.5525 14 14.4172 14 14.2812ZM14 20.375C12.6739 20.375 11.4021 20.91 10.4645 21.8623C9.52678 22.8147 9 24.1063 9 25.4531C9 25.5633 9.00587 25.6728 9.01744 25.7812C9.09073 26.4687 9.39275 27.1141 9.87868 27.6076C10.4413 28.179 11.2044 28.5 12 28.5H24C24.7956 28.5 25.5587 28.179 26.1213 27.6076C26.6073 27.1141 26.9093 26.4687 26.9826 25.7812C26.9941 25.6728 27 25.5633 27 25.4531C27 24.1063 26.4732 22.8147 25.5355 21.8623C24.5979 20.91 23.3261 20.375 22 20.375H14Z" fill="#AAAAAA"/>
<path fill-rule="evenodd" clip-rule="evenodd" d="M8.18587 8.68988C7.37321 9.45174 6.91667 10.4851 6.91667 11.5625C6.91667 12.6399 7.37321 13.6733 8.18587 14.4351C8.99853 15.197 10.1007 15.625 11.25 15.625C11.7187 15.625 12.1795 15.5538 12.616 15.4179C12.5394 15.0465 12.5 14.6658 12.5 14.2812C12.5 12.8134 13.0739 11.4011 14.1027 10.3562C14.3887 10.0658 14.7033 9.8104 15.04 9.59296C14.8459 9.26454 14.6024 8.96013 14.3141 8.68988C13.5015 7.92801 12.3993 7.5 11.25 7.5C10.1007 7.5 8.99853 7.92801 8.18587 8.68988ZM6.91667 17.6562H13.628C13.7733 17.8488 13.9317 18.0326 14.1027 18.2063C14.3482 18.4556 14.6149 18.6791 14.8985 18.875H14C12.2685 18.875 10.6127 19.5738 9.39562 20.8099C8.17926 22.0453 7.5 23.7159 7.5 25.4531C7.5 25.5629 7.50393 25.6724 7.51173 25.7812H4.75C3.88805 25.7812 3.0614 25.4602 2.4519 24.8888C1.84241 24.3174 1.5 23.5425 1.5 22.7344C1.5 21.3876 2.07068 20.0959 3.0865 19.1436C4.10233 18.1913 5.48008 17.6562 6.91667 17.6562ZM28.4883 25.7812H31.25C32.112 25.7812 32.9386 25.4602 33.5481 24.8888C34.1576 24.3174 34.5 23.5425 34.5 22.7344C34.5 21.3876 33.9293 20.0959 32.9135 19.1436C31.8977 18.1913 30.5199 17.6562 29.0833 17.6562H22.372C22.2267 17.8488 22.0683 18.0326 21.8973 18.2063C21.6518 18.4556 21.3851 18.6791 21.1015 18.875H22C23.7315 18.875 25.3873 19.5738 26.6044 20.8099C27.8207 22.0453 28.5 23.7159 28.5 25.4531C28.5 25.5629 28.4961 25.6724 28.4883 25.7812ZM20.96 9.59296C21.2967 9.8104 21.6113 10.0658 21.8973 10.3562C22.9261 11.4011 23.5 12.8134 23.5 14.2812C23.5 14.6658 23.4606 15.0465 23.384 15.4179C23.8205 15.5538 24.2813 15.625 24.75 15.625C25.8993 15.625 27.0015 15.197 27.8141 14.4351C28.6268 13.6733 29.0833 12.6399 29.0833 11.5625C29.0833 10.4851 28.6268 9.45174 27.8141 8.68988C27.0015 7.92801 25.8993 7.5 24.75 7.5C23.6007 7.5 22.4985 7.92801 21.6859 8.68988C21.3976 8.96013 21.1541 9.26454 20.96 9.59296Z" fill="#AAAAAA"/>
</svg>
