<svg width="27" height="27" viewBox="0 0 27 27" fill="none" xmlns="http://www.w3.org/2000/svg">
<path fill-rule="evenodd" clip-rule="evenodd" d="M26.6667 13.3333C26.6667 20.6971 20.6971 26.6667 13.3333 26.6667C5.96954 26.6667 0 20.6971 0 13.3333C0 5.96954 5.96954 0 13.3333 0C20.6971 0 26.6667 5.96954 26.6667 13.3333ZM13.3333 24C19.2244 24 24 19.2244 24 13.3333C24 7.4423 19.2244 2.66667 13.3333 2.66667C7.4423 2.66667 2.66667 7.4423 2.66667 13.3333C2.66667 19.2244 7.4423 24 13.3333 24Z" fill="#D1D1D1"/>
<path fill-rule="evenodd" clip-rule="evenodd" d="M13.3333 5.40034C14.0697 5.40034 14.6667 5.99729 14.6667 6.73367V19.933C14.6667 20.6694 14.0697 21.2663 13.3333 21.2663C12.597 21.2663 12 20.6694 12 19.933V6.73367C12 5.99729 12.597 5.40034 13.3333 5.40034Z" fill="#D1D1D1"/>
<path fill-rule="evenodd" clip-rule="evenodd" d="M5.40034 13.3333C5.40034 12.597 5.99729 12 6.73367 12H19.933C20.6694 12 21.2663 12.597 21.2663 13.3333C21.2663 14.0697 20.6694 14.6667 19.933 14.6667H6.73367C5.99729 14.6667 5.40034 14.0697 5.40034 13.3333Z" fill="#D1D1D1"/>
</svg>
