<svg width="36" height="36" viewBox="0 0 36 36" fill="none" xmlns="http://www.w3.org/2000/svg">
<path d="M18 4.5C16.6089 4.5 15.4156 5.49194 15.1614 6.85959L15 7.72826L13.8127 7.8315C11.0054 8.07562 8.74999 10.2474 8.4 13.0435V22.2155C8.4 22.2934 8.3697 22.3682 8.31551 22.4242L6.90659 23.8791C6.32512 24.4795 6 25.2826 6 26.1184C6 27.4517 7.08088 28.5326 8.41421 28.5326H14.3437C14.3748 28.5326 14.4 28.5578 14.4 28.5889V28.65C14.4 30.6382 16.0118 32.25 18 32.25C19.9882 32.25 21.6 30.6382 21.6 28.65V28.5889C21.6 28.5578 21.6252 28.5326 21.6563 28.5326H28.5808C29.3646 28.5326 30 27.8972 30 27.1134C30 25.6394 29.4266 24.2232 28.4012 23.1643L27.6845 22.4242C27.6303 22.3682 27.6 22.2934 27.6 22.2155V13.0435C27.25 10.2474 24.9946 8.07562 22.1873 7.8315L21 7.72826L20.8386 6.85959C20.5844 5.49194 19.3911 4.5 18 4.5Z" fill="url(#paint0_linear_4763_1037)"/>
<defs>
<linearGradient id="paint0_linear_4763_1037" x1="18" y1="4.5" x2="18" y2="32.25" gradientUnits="userSpaceOnUse">
<stop stop-color="#1C8DF4"/>
<stop offset="1" stop-color="#21B6E5"/>
</linearGradient>
</defs>
</svg>
