<svg width="36" height="36" viewBox="0 0 36 36" fill="none" xmlns="http://www.w3.org/2000/svg">
<path d="M15 28.5003V22.5003H21V28.5003C21 29.3253 21.675 30.0003 22.5 30.0003H27C27.825 30.0003 28.5 29.3253 28.5 28.5003V18.0003H31.05C31.74 18.0003 32.07 17.1453 31.545 16.6953L19.005 5.40032C18.435 4.89032 17.565 4.89032 16.995 5.40032L4.45496 16.6953C3.94496 17.1453 4.25996 18.0003 4.94996 18.0003H7.49996V28.5003C7.49996 29.3253 8.17496 30.0003 8.99996 30.0003H13.5C14.325 30.0003 15 29.3253 15 28.5003Z" fill="url(#paint0_linear_4763_1031)"/>
<defs>
<linearGradient id="paint0_linear_4763_1031" x1="18.0033" y1="5.01782" x2="18.0033" y2="30.0003" gradientUnits="userSpaceOnUse">
<stop stop-color="#1C8DF4"/>
<stop offset="1" stop-color="#21B6E5"/>
</linearGradient>
</defs>
</svg>
