<svg width="18" height="19" viewBox="0 0 18 19" fill="none" xmlns="http://www.w3.org/2000/svg">
<path fill-rule="evenodd" clip-rule="evenodd" d="M8.99921 17.6746C8.58499 17.6746 8.24921 17.3388 8.24921 16.9246L8.24921 2.07538C8.24921 1.66117 8.58499 1.32538 8.99921 1.32538C9.41342 1.32538 9.74921 1.66117 9.74921 2.07538L9.74921 16.9246C9.74921 17.3388 9.41342 17.6746 8.99921 17.6746Z" fill="#AAAAAA"/>
<path fill-rule="evenodd" clip-rule="evenodd" d="M17.1738 9.5C17.1738 9.91421 16.838 10.25 16.4238 10.25L1.57459 10.25C1.16037 10.25 0.824587 9.91421 0.824587 9.5C0.824587 9.08579 1.16037 8.75 1.57459 8.75L16.4238 8.75C16.838 8.75 17.1738 9.08579 17.1738 9.5Z" fill="#AAAAAA"/>
</svg>
