<svg width="32" height="32" viewBox="0 0 32 32" fill="none" xmlns="http://www.w3.org/2000/svg">
<rect width="32" height="32" rx="8" fill="#F4F5F9"/>
<path fill-rule="evenodd" clip-rule="evenodd" d="M16 7.5C11.3056 7.5 7.5 11.3056 7.5 16C7.5 20.6944 11.3056 24.5 16 24.5C20.6944 24.5 24.5 20.6944 24.5 16C24.5 11.3056 20.6944 7.5 16 7.5ZM6 16C6 10.4772 10.4772 6 16 6C21.5228 6 26 10.4772 26 16C26 21.5228 21.5228 26 16 26C10.4772 26 6 21.5228 6 16Z" fill="#787878"/>
<path fill-rule="evenodd" clip-rule="evenodd" d="M25.25 16C25.25 21.1086 21.1086 25.25 16 25.25C10.8914 25.25 6.75 21.1086 6.75 16C6.75 10.8914 10.8914 6.75 16 6.75C21.1086 6.75 25.25 10.8914 25.25 16ZM22.0872 13.1431C22.3872 12.8574 22.3988 12.3827 22.1131 12.0827C21.8274 11.7828 21.3527 11.7712 21.0528 12.0569L14.4293 18.3649L10.9466 15.0562C10.6463 14.7709 10.1715 14.7831 9.88624 15.0834C9.60096 15.3837 9.61313 15.8584 9.91343 16.1437L13.9134 19.9437C14.2032 20.219 14.6578 20.2187 14.9472 19.9431L22.0872 13.1431Z" fill="#787878"/>
</svg>
