<svg width="32" height="32" viewBox="0 0 32 32" fill="none" xmlns="http://www.w3.org/2000/svg">
<rect width="32" height="32" rx="8" fill="#F4F5F9"/>
<path fill-rule="evenodd" clip-rule="evenodd" d="M10.5 20H20C21.8856 20 22.8284 20 23.4142 19.4142C24 18.8284 24 17.8856 24 16V11C24 9.11439 24 8.17158 23.4142 7.58579C22.8284 7 21.8856 7 20 7H12C10.1144 7 9.17158 7 8.58579 7.58579C8 8.17158 8 9.11439 8 11V22.5C8 21.1193 9.11929 20 10.5 20ZM13 10C11.8954 10 11 10.8954 11 12C11 13.1046 11.8954 14 13 14H19C20.1046 14 21 13.1046 21 12C21 10.8954 20.1046 10 19 10L13 10Z" fill="#787878"/>
<path fill-rule="evenodd" clip-rule="evenodd" d="M9.93871 8.06431C9.50497 8.12263 9.36902 8.21677 9.2929 8.2929C9.21677 8.36902 9.12263 8.50497 9.06431 8.93871C9.00213 9.40122 9 10.0289 9 11V19.3368C9.45463 19.1209 9.96321 19 10.5 19H20C20.9711 19 21.5988 18.9979 22.0613 18.9357C22.495 18.8774 22.631 18.7832 22.7071 18.7071C22.7832 18.631 22.8774 18.495 22.9357 18.0613C22.9979 17.5988 23 16.9711 23 16V11C23 10.0289 22.9979 9.40121 22.9357 8.93871C22.8774 8.50497 22.7832 8.36902 22.7071 8.2929C22.631 8.21677 22.495 8.12263 22.0613 8.06431C21.5988 8.00213 20.9711 8 20 8H12C11.0289 8 10.4012 8.00213 9.93871 8.06431ZM7 22.5V11C7 10.978 7 10.956 7 10.9342C6.99995 10.0477 6.99991 9.28387 7.08215 8.67221C7.17028 8.0167 7.36902 7.38835 7.87868 6.87868C8.38835 6.36902 9.0167 6.17028 9.67221 6.08215C10.2839 5.99991 11.0477 5.99995 11.9342 6C11.956 6 11.978 6 12 6L20.0658 6C20.9523 5.99995 21.7161 5.99991 22.3278 6.08215C22.9833 6.17028 23.6117 6.36902 24.1213 6.87868C24.631 7.38835 24.8297 8.0167 24.9179 8.67221C25.0001 9.28388 25.0001 10.0477 25 10.9342V16.0658C25.0001 16.9523 25.0001 17.7161 24.9179 18.3278C24.8297 18.9833 24.631 19.6117 24.1213 20.1213C23.6117 20.631 22.9833 20.8297 22.3278 20.9179C21.7161 21.0001 20.9523 21.0001 20.0658 21L10.5 21C9.67158 21 9 21.6716 9 22.5C9 23.3284 9.67158 24 10.5 24H15V26H10.5C8.56701 26 7 24.433 7 22.5ZM13 11C12.4477 11 12 11.4477 12 12C12 12.5523 12.4477 13 13 13L19 13C19.5523 13 20 12.5523 20 12C20 11.4477 19.5523 11 19 11L13 11ZM10 12C10 10.3432 11.3432 9 13 9L19 9.00001C20.6569 9.00001 22 10.3432 22 12C22 13.6569 20.6569 15 19 15H13C11.3432 15 10 13.6569 10 12Z" fill="#787878"/>
<path fill-rule="evenodd" clip-rule="evenodd" d="M13 25C13 24.4477 13.4477 24 14 24H24C24.5523 24 25 24.4477 25 25C25 25.5523 24.5523 26 24 26H14C13.4477 26 13 25.5523 13 25Z" fill="#787878"/>
</svg>
