<svg width="32" height="32" viewBox="0 0 32 32" fill="none" xmlns="http://www.w3.org/2000/svg">
<rect width="32" height="32" rx="8" fill="#F4F5F9"/>
<path d="M24.9981 14.3333C24.96 15.917 24.5582 17.4719 23.8225 18.8823C23.0867 20.2926 22.036 21.5221 20.7485 22.4792V25.1667C20.7485 25.3877 20.659 25.5996 20.4996 25.7559C20.3402 25.9122 20.124 26 19.8986 26C19.6732 26 19.4571 25.9122 19.2977 25.7559C19.1383 25.5996 19.0487 25.3877 19.0487 25.1667V7.66667C19.0411 7.35355 19.1284 7.04526 19.2995 6.78077C19.4706 6.51629 19.7178 6.30751 20.01 6.18083C20.3456 6.04697 20.7136 6.01186 21.0692 6.07979C21.4248 6.14772 21.7526 6.31574 22.0123 6.56333C23.9836 8.68413 25.0519 11.4644 24.9981 14.3333ZM15.6491 6C15.4237 6 15.2075 6.0878 15.0482 6.24408C14.8888 6.40036 14.7992 6.61232 14.7992 6.83333V11.8333C14.797 12.3486 14.6326 12.8505 14.3283 13.2706C14.024 13.6906 13.5948 14.0083 13.0994 14.18V6.83333C13.0994 6.61232 13.0099 6.40036 12.8505 6.24408C12.6911 6.0878 12.4749 6 12.2495 6C12.0241 6 11.8079 6.0878 11.6485 6.24408C11.4892 6.40036 11.3996 6.61232 11.3996 6.83333V14.18C10.9042 14.0083 10.475 13.6906 10.1707 13.2706C9.86646 12.8505 9.70198 12.3486 9.69981 11.8333V6.83333C9.69981 6.61232 9.61026 6.40036 9.45087 6.24408C9.29149 6.0878 9.07531 6 8.8499 6C8.62449 6 8.40832 6.0878 8.24893 6.24408C8.08954 6.40036 8 6.61232 8 6.83333V11.8333C8.00124 12.7935 8.34004 13.7239 8.9593 14.4677C9.57856 15.2115 10.4404 15.7233 11.3996 15.9167V25.1667C11.3996 25.3877 11.4892 25.5996 11.6485 25.7559C11.8079 25.9122 12.0241 26 12.2495 26C12.4749 26 12.6911 25.9122 12.8505 25.7559C13.0099 25.5996 13.0994 25.3877 13.0994 25.1667V15.9167C14.0586 15.7233 14.9205 15.2115 15.5397 14.4677C16.159 13.7239 16.4978 12.7935 16.499 11.8333V6.83333C16.499 6.61232 16.4095 6.40036 16.2501 6.24408C16.0907 6.0878 15.8745 6 15.6491 6V6Z" fill="#787878"/>
</svg>
