<svg width="32" height="32" viewBox="0 0 32 32" fill="none" xmlns="http://www.w3.org/2000/svg">
<rect width="32" height="32" rx="8" fill="#F4F5F9"/>
<path d="M6 21.8333C6.00132 22.938 6.44073 23.997 7.22185 24.7782C8.00296 25.5593 9.062 25.9987 10.1667 26H21.8333C22.938 25.9987 23.997 25.5593 24.7782 24.7782C25.5593 23.997 25.9987 22.938 26 21.8333V14.3334H6V21.8333ZM20.1667 18.0834C20.4139 18.0834 20.6556 18.1567 20.8611 18.294C21.0667 18.4314 21.2269 18.6266 21.3215 18.855C21.4161 19.0834 21.4409 19.3347 21.3926 19.5772C21.3444 19.8197 21.2254 20.0424 21.0505 20.2172C20.8757 20.392 20.653 20.5111 20.4105 20.5593C20.1681 20.6076 19.9167 20.5828 19.6883 20.4882C19.4599 20.3936 19.2647 20.2334 19.1273 20.0278C18.99 19.8223 18.9167 19.5806 18.9167 19.3334C18.9167 19.0018 19.0484 18.6839 19.2828 18.4495C19.5172 18.215 19.8351 18.0834 20.1667 18.0834ZM16 18.0834C16.2472 18.0834 16.4889 18.1567 16.6945 18.294C16.9 18.4314 17.0602 18.6266 17.1548 18.855C17.2495 19.0834 17.2742 19.3347 17.226 19.5772C17.1777 19.8197 17.0587 20.0424 16.8839 20.2172C16.7091 20.392 16.4863 20.5111 16.2439 20.5593C16.0014 20.6076 15.7501 20.5828 15.5216 20.4882C15.2932 20.3936 15.098 20.2334 14.9607 20.0278C14.8233 19.8223 14.75 19.5806 14.75 19.3334C14.75 19.0018 14.8817 18.6839 15.1161 18.4495C15.3505 18.215 15.6685 18.0834 16 18.0834ZM11.8333 18.0834C12.0806 18.0834 12.3222 18.1567 12.5278 18.294C12.7334 18.4314 12.8936 18.6266 12.9882 18.855C13.0828 19.0834 13.1075 19.3347 13.0593 19.5772C13.0111 19.8197 12.892 20.0424 12.7172 20.2172C12.5424 20.392 12.3197 20.5111 12.0772 20.5593C11.8347 20.6076 11.5834 20.5828 11.355 20.4882C11.1266 20.3936 10.9313 20.2334 10.794 20.0278C10.6566 19.8223 10.5833 19.5806 10.5833 19.3334C10.5833 19.0018 10.715 18.6839 10.9494 18.4495C11.1839 18.215 11.5018 18.0834 11.8333 18.0834Z" fill="#787878"/>
<path d="M21.8333 7.66666H21V6.83333C21 6.61232 20.9122 6.40036 20.7559 6.24408C20.5996 6.0878 20.3877 6 20.1667 6C19.9457 6 19.7337 6.0878 19.5774 6.24408C19.4211 6.40036 19.3333 6.61232 19.3333 6.83333V7.66666H12.6667V6.83333C12.6667 6.61232 12.5789 6.40036 12.4226 6.24408C12.2663 6.0878 12.0543 6 11.8333 6C11.6123 6 11.4004 6.0878 11.2441 6.24408C11.0878 6.40036 11 6.61232 11 6.83333V7.66666H10.1667C9.062 7.66799 8.00296 8.1074 7.22185 8.88851C6.44073 9.66962 6.00132 10.7287 6 11.8333V12.6666H26V11.8333C25.9987 10.7287 25.5593 9.66962 24.7782 8.88851C23.997 8.1074 22.938 7.66799 21.8333 7.66666Z" fill="#787878"/>
</svg>
