<svg width="24" height="24" viewBox="0 0 24 24" fill="none" xmlns="http://www.w3.org/2000/svg">
<path d="M2 17.8333C2.00132 18.938 2.44073 19.997 3.22185 20.7782C4.00296 21.5593 5.062 21.9987 6.16667 22H17.8333C18.938 21.9987 19.997 21.5593 20.7782 20.7782C21.5593 19.997 21.9987 18.938 22 17.8333V10.3334H2V17.8333ZM16.1667 14.0834C16.4139 14.0834 16.6556 14.1567 16.8611 14.294C17.0667 14.4314 17.2269 14.6266 17.3215 14.855C17.4161 15.0834 17.4409 15.3347 17.3926 15.5772C17.3444 15.8197 17.2254 16.0424 17.0505 16.2172C16.8757 16.392 16.653 16.5111 16.4105 16.5593C16.1681 16.6076 15.9167 16.5828 15.6883 16.4882C15.4599 16.3936 15.2647 16.2334 15.1273 16.0278C14.99 15.8223 14.9167 15.5806 14.9167 15.3334C14.9167 15.0018 15.0484 14.6839 15.2828 14.4495C15.5172 14.215 15.8351 14.0834 16.1667 14.0834ZM12 14.0834C12.2472 14.0834 12.4889 14.1567 12.6945 14.294C12.9 14.4314 13.0602 14.6266 13.1548 14.855C13.2495 15.0834 13.2742 15.3347 13.226 15.5772C13.1777 15.8197 13.0587 16.0424 12.8839 16.2172C12.7091 16.392 12.4863 16.5111 12.2439 16.5593C12.0014 16.6076 11.7501 16.5828 11.5216 16.4882C11.2932 16.3936 11.098 16.2334 10.9607 16.0278C10.8233 15.8223 10.75 15.5806 10.75 15.3334C10.75 15.0018 10.8817 14.6839 11.1161 14.4495C11.3505 14.215 11.6685 14.0834 12 14.0834ZM7.83333 14.0834C8.08056 14.0834 8.32223 14.1567 8.5278 14.294C8.73336 14.4314 8.89357 14.6266 8.98818 14.855C9.08279 15.0834 9.10755 15.3347 9.05931 15.5772C9.01108 15.8197 8.89203 16.0424 8.71722 16.2172C8.5424 16.392 8.31967 16.5111 8.0772 16.5593C7.83472 16.6076 7.58339 16.5828 7.35498 16.4882C7.12657 16.3936 6.93135 16.2334 6.794 16.0278C6.65664 15.8223 6.58333 15.5806 6.58333 15.3334C6.58333 15.0018 6.71503 14.6839 6.94945 14.4495C7.18387 14.215 7.50181 14.0834 7.83333 14.0834Z" fill="#787878"/>
<path d="M17.8333 3.66666H17V2.83333C17 2.61232 16.9122 2.40036 16.7559 2.24408C16.5996 2.0878 16.3877 2 16.1667 2C15.9457 2 15.7337 2.0878 15.5774 2.24408C15.4211 2.40036 15.3333 2.61232 15.3333 2.83333V3.66666H8.66667V2.83333C8.66667 2.61232 8.57887 2.40036 8.42259 2.24408C8.26631 2.0878 8.05435 2 7.83333 2C7.61232 2 7.40036 2.0878 7.24408 2.24408C7.0878 2.40036 7 2.61232 7 2.83333V3.66666H6.16667C5.062 3.66799 4.00296 4.1074 3.22185 4.88851C2.44073 5.66962 2.00132 6.72866 2 7.83332V8.66665H22V7.83332C21.9987 6.72866 21.5593 5.66962 20.7782 4.88851C19.997 4.1074 18.938 3.66799 17.8333 3.66666Z" fill="#787878"/>
</svg>
