<svg width="32" height="31" viewBox="0 0 32 31" fill="none" xmlns="http://www.w3.org/2000/svg">
<path fill-rule="evenodd" clip-rule="evenodd" d="M16 2.325C8.48893 2.325 2.4 8.22365 2.4 15.5C2.4 22.7764 8.48893 28.675 16 28.675C23.5111 28.675 29.6 22.7764 29.6 15.5C29.6 8.22365 23.5111 2.325 16 2.325ZM0 15.5C0 6.93959 7.16344 0 16 0C24.8366 0 32 6.93959 32 15.5C32 24.0604 24.8366 31 16 31C7.16344 31 0 24.0604 0 15.5Z" fill="#E6E6E6"/>
<path fill-rule="evenodd" clip-rule="evenodd" d="M30.8 15.5C30.8 23.4184 24.1738 29.8375 16 29.8375C7.82619 29.8375 1.2 23.4184 1.2 15.5C1.2 7.58162 7.82619 1.1625 16 1.1625C24.1738 1.1625 30.8 7.58162 30.8 15.5ZM25.7396 11.0718C26.2195 10.629 26.238 9.89316 25.781 9.42824C25.3239 8.96332 24.5643 8.94537 24.0844 9.38815L13.487 19.1656L7.91449 14.0372C7.434 13.595 6.67445 13.6138 6.21799 14.0793C5.76153 14.5448 5.781 15.2806 6.26149 15.7228L12.6615 21.6128C13.1251 22.0394 13.8525 22.039 14.3156 21.6118L25.7396 11.0718Z" fill="#E6E6E6"/>
</svg>
