<svg width="24" height="24" viewBox="0 0 24 24" fill="none" xmlns="http://www.w3.org/2000/svg">
<rect width="24" height="24" fill="white"/>
<path fill-rule="evenodd" clip-rule="evenodd" d="M18.3561 2.43761C18.8877 2.17412 19.5119 2.17414 20.0436 2.43766C20.3292 2.57923 20.5698 2.8214 20.7779 3.03087L20.8948 3.14778C21.1042 3.35587 21.3463 3.59647 21.4878 3.88206C21.7513 4.41368 21.7513 5.03785 21.4878 5.56945C21.3462 5.85504 21.1041 6.09562 20.8947 6.30371L11.0726 16.1257H7.7998V12.853L17.6217 3.03079C17.8298 2.82133 18.0704 2.57916 18.3561 2.43761ZM19.2705 4.0691C19.2315 4.03005 19.1682 4.03005 19.1291 4.0691L9.59985 13.5983V14.3256H10.3271L19.8562 4.79623C19.8952 4.75718 19.8952 4.69386 19.8562 4.65481L19.2705 4.0691Z" fill="#AAAAAA"/>
<path fill-rule="evenodd" clip-rule="evenodd" d="M7.16305 2.82594C6.49425 2.82593 5.93827 2.82592 5.48452 2.86299C5.01199 2.9016 4.57165 2.98486 4.15624 3.19652C3.51649 3.52249 2.99635 4.04263 2.67038 4.68238C2.45872 5.09779 2.37546 5.53812 2.33685 6.01066C2.29978 6.46441 2.29979 7.02039 2.29981 7.68919V16.7627C2.29979 17.4315 2.29978 17.9875 2.33685 18.4412C2.37546 18.9138 2.45872 19.3541 2.67038 19.7695C2.99635 20.4093 3.51649 20.9294 4.15624 21.2554C4.57165 21.467 5.01199 21.5503 5.48452 21.5889C5.93827 21.626 6.49425 21.626 7.16305 21.6259H16.2366C16.9054 21.626 17.4614 21.626 17.9152 21.5889C18.3877 21.5503 18.8281 21.467 19.2435 21.2554C19.8832 20.9294 20.4034 20.4092 20.7293 19.7695C20.941 19.3541 21.0242 18.9137 21.0629 18.4412C21.0999 17.9874 21.0999 17.4314 21.0999 16.7626L21.0998 11.2259L19.2998 11.226L19.2999 16.7259C19.2999 17.4408 19.2992 17.9229 19.2688 18.2946C19.2393 18.6559 19.1863 18.8329 19.1255 18.9523C18.9721 19.2534 18.7274 19.4982 18.4263 19.6516C18.3069 19.7124 18.1298 19.7654 17.7686 19.7949C17.3969 19.8252 16.9148 19.8259 16.1999 19.8259H7.19981C6.48489 19.8259 6.00283 19.8252 5.6311 19.7949C5.26988 19.7654 5.09279 19.7124 4.97342 19.6516C4.67236 19.4982 4.42759 19.2534 4.2742 18.9523C4.21337 18.833 4.16039 18.6559 4.13088 18.2947C4.10051 17.9229 4.09981 17.4409 4.09981 16.7259V7.72594C4.09981 7.01103 4.10051 6.52897 4.13088 6.15724C4.16039 5.79601 4.21337 5.61893 4.2742 5.49956C4.42759 5.1985 4.67236 4.95373 4.97342 4.80033C5.09279 4.73951 5.26988 4.68653 5.6311 4.65702C6.00283 4.62664 6.48489 4.62594 7.19981 4.62594H12.6998V2.82594L7.16305 2.82594Z" fill="#AAAAAA"/>
</svg>
