<svg width="28" height="28" viewBox="0 0 28 28" fill="none" xmlns="http://www.w3.org/2000/svg">
<path d="M11.0833 11.6667C11.0833 12.311 10.561 12.8334 9.91668 12.8334C9.27234 12.8334 8.75001 12.311 8.75001 11.6667C8.75001 11.0224 9.27234 10.5 9.91668 10.5C10.561 10.5 11.0833 11.0224 11.0833 11.6667Z" fill="#787878"/>
<path d="M15.75 11.6667C15.75 12.311 15.2277 12.8334 14.5833 12.8334C13.939 12.8334 13.4167 12.311 13.4167 11.6667C13.4167 11.0224 13.939 10.5 14.5833 10.5C15.2277 10.5 15.75 11.0224 15.75 11.6667Z" fill="#787878"/>
<path fill-rule="evenodd" clip-rule="evenodd" d="M8.17382 14.5082C8.5375 14.19 9.09029 14.2268 9.40851 14.5905C11.2216 16.6626 14.4451 16.6626 16.2582 14.5905C16.5764 14.2268 17.1292 14.19 17.4929 14.5082C17.8566 14.8264 17.8934 15.3792 17.5752 15.7429C15.0649 18.6118 10.6018 18.6118 8.09151 15.7429C7.77328 15.3792 7.81014 14.8264 8.17382 14.5082Z" fill="#787878"/>
<path fill-rule="evenodd" clip-rule="evenodd" d="M12.25 5.54169C8.22293 5.54169 4.95834 8.80628 4.95834 12.8334C4.95834 16.8604 8.22293 20.125 12.25 20.125C12.6668 20.125 13.0755 20.09 13.4732 20.0229C13.436 19.7707 13.4167 19.5126 13.4167 19.25C13.4167 16.3505 15.7672 14 18.6667 14C18.9292 14 19.1873 14.0193 19.4395 14.0565C19.5067 13.6588 19.5417 13.2502 19.5417 12.8334C19.5417 8.80628 16.2771 5.54169 12.25 5.54169ZM21.1179 14.6062C21.2319 14.0329 21.2917 13.4401 21.2917 12.8334C21.2917 7.83978 17.2436 3.79169 12.25 3.79169C7.25644 3.79169 3.20834 7.83978 3.20834 12.8334C3.20834 17.8269 7.25644 21.875 12.25 21.875C12.8568 21.875 13.4496 21.8153 14.0229 21.7013C14.9033 23.3658 16.6526 24.5 18.6667 24.5C21.5662 24.5 23.9167 22.1495 23.9167 19.25C23.9167 17.2359 22.7825 15.4867 21.1179 14.6062ZM19.25 18.5567V16.9167C19.25 16.5945 18.9888 16.3334 18.6667 16.3334L18.6482 16.3336C18.3346 16.3434 18.0833 16.6007 18.0833 16.9167V17.2091V18.6667H16.6257H16.3333C16.0174 18.6667 15.7601 18.9179 15.7503 19.2315L15.75 19.25C15.75 19.5722 16.0112 19.8334 16.3333 19.8334H17.9734H18.0833V21.5834C18.0833 21.9055 18.3445 22.1667 18.6667 22.1667C18.9888 22.1667 19.25 21.9055 19.25 21.5834V19.8334H21C21.3222 19.8334 21.5833 19.5722 21.5833 19.25C21.5833 18.9279 21.3222 18.6667 21 18.6667H19.25V18.5567Z" fill="#787878"/>
</svg>
