<svg width="32" height="32" viewBox="0 0 32 32" fill="none" xmlns="http://www.w3.org/2000/svg">
<rect width="32" height="32" rx="8" fill="#F4F5F9"/>
<path d="M16 7C15.0726 7 14.2771 7.66129 14.1076 8.57306L14 9.15217L13.2085 9.221C11.3369 9.38374 9.83332 10.8316 9.6 12.6957V18.8103C9.6 18.8623 9.5798 18.9122 9.54367 18.9495L8.60439 19.9194C8.21675 20.3197 8 20.855 8 21.4123C8 22.3012 8.72058 23.0217 9.60947 23.0217H13.5625C13.5832 23.0217 13.6 23.0385 13.6 23.0593V23.1C13.6 24.4255 14.6745 25.5 16 25.5C17.3255 25.5 18.4 24.4255 18.4 23.1V23.0593C18.4 23.0385 18.4168 23.0217 18.4376 23.0217H23.0539C23.5764 23.0217 24 22.5981 24 22.0756C24 21.0929 23.6178 20.1488 22.9341 19.4429L22.4563 18.9495C22.4202 18.9122 22.4 18.8623 22.4 18.8103V12.6957C22.1667 10.8316 20.6631 9.38374 18.7915 9.221L18 9.15217L17.8924 8.57306C17.7229 7.66129 16.9274 7 16 7Z" fill="#787878"/>
</svg>
