<svg width="32" height="32" viewBox="0 0 32 32" fill="none" xmlns="http://www.w3.org/2000/svg">
<rect width="32" height="32" rx="8" fill="#F4F5F9"/>
<path fill-rule="evenodd" clip-rule="evenodd" d="M16.7771 7.0794C18.1616 6.1571 18.265 7.98328 19.624 6.84153V8.70454C18.3287 9.82941 18.0486 8.01244 16.7771 8.93473V7.0794ZM16.1549 12.251H16.3968C16.4414 12.251 16.4764 12.2863 16.4764 12.3277V13.224H17.3245C17.3691 13.224 17.4041 13.2592 17.4041 13.3007V13.5339C17.4041 13.5769 17.3675 13.6107 17.3245 13.6107H16.0738V12.3262C16.0738 12.2863 16.1104 12.251 16.1549 12.251ZM16.4286 11.2013C17.5187 11.2013 18.4019 12.053 18.4019 13.1043C18.4019 14.1555 17.5187 15.0072 16.4286 15.0072C15.3386 15.0072 14.4554 14.1555 14.4554 13.1043C14.4554 12.0546 15.3386 11.2013 16.4286 11.2013ZM16.6992 17.5807V23.7605H18.6485V17.5807H16.6992ZM16.1581 23.7605V17.5807H14.2087V23.7605H16.1581ZM23.2984 25.4241C24.0015 25.4241 24.5715 24.8744 24.5715 24.1964V15.7576C24.5715 15.0796 24.0015 14.5299 23.2984 14.5299H20.2812V12.2266C20.2812 12.018 20.1713 11.8236 19.9895 11.7106L16.5814 9.59308V7.04563H16.5687C16.6466 7.00267 16.6976 6.9198 16.6976 6.82619C16.6976 6.685 16.5798 6.57144 16.4334 6.57144C16.287 6.57144 16.1692 6.685 16.1692 6.82619C16.1692 6.9198 16.2218 7.00113 16.2981 7.04563H16.2854V9.58847L12.8694 11.7106C12.6875 11.8236 12.5776 12.018 12.5776 12.2267V14.5299H9.4363C8.80088 14.5299 8.28577 15.0267 8.28577 15.6394V24.201C8.28577 24.879 8.85574 25.4287 9.55884 25.4286C14.1393 25.428 18.7179 25.4247 23.2984 25.4241ZM10.0346 17.5807H12.1814V18.3864H10.0346V17.5807ZM20.6743 17.5807H22.821V18.3864H20.6743V17.5807ZM10.0346 19.3593H12.1814V20.165H10.0346V19.3593ZM20.6743 19.3593H22.821V20.165H20.6743V19.3593ZM10.0346 21.1379H12.1814V21.9436H10.0346V21.1379ZM20.6743 21.1379H22.821V21.9436H20.6743V21.1379ZM10.0346 22.9165H12.1814V23.7222H10.0346V22.9165ZM20.6743 22.9165H22.821V23.7222H20.6743V22.9165Z" fill="#787878"/>
</svg>
