<svg width="24" height="24" viewBox="0 0 24 24" fill="none" xmlns="http://www.w3.org/2000/svg">
<path fill-rule="evenodd" clip-rule="evenodd" d="M21.7426 13.5875C21.395 13.9432 20.8263 13.9483 20.4724 13.5989L11.9531 5.18837C11.001 4.24837 9.70247 3.74923 8.36927 3.81072L8.21633 3.81778C5.82841 3.92793 3.91603 5.84634 3.80171 8.24631C3.73858 9.57172 4.24105 10.8612 5.18292 11.791L12.9097 19.4183C13.4613 19.9628 14.2191 20.243 14.9903 20.1874L15.1883 20.1732C16.5215 20.0772 17.5832 19.0133 17.6829 17.6735L17.6865 17.6251C17.7456 16.8292 17.4526 16.0477 16.8856 15.489L10.2724 8.97316C10.1255 8.82838 9.93294 8.73958 9.72792 8.72203L9.67221 8.71727C9.15332 8.67287 8.72017 9.10984 8.76625 9.63123C8.78389 9.83091 8.8718 10.0177 9.01417 10.1581L13.7069 14.7852C14.061 15.1344 14.0665 15.706 13.7191 16.0619C13.3717 16.4179 12.803 16.4234 12.4489 16.0742L7.75618 11.4471C7.30866 11.0058 7.03235 10.4186 6.97689 9.79098C6.83207 8.15208 8.19356 6.77857 9.82459 6.91813L9.8803 6.9229C10.5014 6.97605 11.0848 7.24507 11.5299 7.6837L18.1431 14.1996C19.0881 15.1306 19.5765 16.4332 19.4779 17.7596L19.4743 17.8081C19.3082 20.0411 17.5387 21.8142 15.3167 21.9742L15.1186 21.9884C13.8333 22.081 12.5704 21.6141 11.651 20.7066L3.92422 13.0793C2.61708 11.789 1.91975 9.99936 2.00737 8.15996C2.16602 4.82927 4.82003 2.1669 8.13397 2.01403L8.28691 2.00698C10.119 1.92247 11.9034 2.60841 13.2119 3.90017L21.7312 12.3107C22.0851 12.6601 22.0902 13.2317 21.7426 13.5875Z" fill="black"/>
</svg>
