<svg width="64" height="64" viewBox="0 0 64 64" fill="none" xmlns="http://www.w3.org/2000/svg">
<g clip-path="url(#clip0_10537_4319)">
<circle cx="32" cy="32" r="32" fill="#B1DBFD"/>
<path fill-rule="evenodd" clip-rule="evenodd" d="M26.6667 25.3333C26.6667 23.9188 27.2286 22.5623 28.2288 21.5621C29.229 20.5619 30.5855 20 32 20C33.4145 20 34.771 20.5619 35.7712 21.5621C36.7714 22.5623 37.3333 23.9188 37.3333 25.3333C37.3333 26.7478 36.7714 28.1044 35.7712 29.1046C34.771 30.1048 33.4145 30.6667 32 30.6667C30.5855 30.6667 29.229 30.1048 28.2288 29.1046C27.2286 28.1044 26.6667 26.7478 26.6667 25.3333ZM26.6667 33.3333C24.8986 33.3333 23.2029 34.0357 21.9526 35.286C20.7024 36.5362 20 38.2319 20 40C20 41.0609 20.4214 42.0783 21.1716 42.8284C21.9217 43.5786 22.9391 44 24 44H40C41.0609 44 42.0783 43.5786 42.8284 42.8284C43.5786 42.0783 44 41.0609 44 40C44 38.2319 43.2976 36.5362 42.0474 35.286C40.7971 34.0357 39.1014 33.3333 37.3333 33.3333H26.6667Z" fill="#7EC4FC"/>
</g>
<defs>
<clipPath id="clip0_10537_4319">
<path d="M0 32C0 14.3269 14.3269 0 32 0C49.6731 0 64 14.3269 64 32C64 49.6731 49.6731 64 32 64C14.3269 64 0 49.6731 0 32Z" fill="white"/>
</clipPath>
</defs>
</svg>
