<svg width="28" height="28" viewBox="0 0 28 28" fill="none" xmlns="http://www.w3.org/2000/svg">
<path fill-rule="evenodd" clip-rule="evenodd" d="M13.9997 22.1666C18.51 22.1666 22.1663 18.5102 22.1663 13.9999C22.1663 9.48959 18.51 5.83325 13.9997 5.83325C9.48935 5.83325 5.83301 9.48959 5.83301 13.9999C5.83301 18.5102 9.48935 22.1666 13.9997 22.1666ZM10.8649 10.865C11.0927 10.6372 11.4621 10.6372 11.6899 10.865L13.9996 13.1748L16.3094 10.865C16.5372 10.6372 16.9065 10.6372 17.1343 10.865C17.3621 11.0929 17.3621 11.4622 17.1343 11.69L14.8246 13.9997L17.1343 16.3095C17.3621 16.5373 17.3621 16.9066 17.1343 17.1344C16.9065 17.3623 16.5372 17.3623 16.3094 17.1344L13.9996 14.8247L11.6899 17.1344C11.4621 17.3623 11.0927 17.3623 10.8649 17.1344C10.6371 16.9066 10.6371 16.5373 10.8649 16.3095L13.1747 13.9997L10.8649 11.69C10.6371 11.4622 10.6371 11.0929 10.8649 10.865Z" fill="#AAAAAA"/>
</svg>
