<svg width="20" height="20" viewBox="0 0 20 20" fill="none" xmlns="http://www.w3.org/2000/svg">
<path fill-rule="evenodd" clip-rule="evenodd" d="M15.2972 2.03137C15.7402 1.81179 16.2604 1.81181 16.7035 2.03141C16.9415 2.14939 17.142 2.3512 17.3154 2.52575L17.4128 2.62318C17.5873 2.79659 17.7891 2.99708 17.907 3.23508C18.1266 3.67809 18.1265 4.19823 17.907 4.64124C17.789 4.87923 17.5872 5.07971 17.4127 5.25312L9.22766 13.4382H6.50033V10.7108L14.6853 2.52568C14.8587 2.35114 15.0592 2.14933 15.2972 2.03137ZM16.0593 3.39095C16.0267 3.3584 15.974 3.3584 15.9414 3.39094L8.00037 11.332V11.938H8.60637L16.5473 3.99689C16.5798 3.96434 16.5798 3.91158 16.5473 3.87904L16.0593 3.39095Z" fill="#AAAAAA"/>
<path fill-rule="evenodd" clip-rule="evenodd" d="M5.9697 2.35498C5.41236 2.35497 4.94904 2.35496 4.57092 2.38586C4.17714 2.41803 3.8102 2.48741 3.46402 2.6638C2.93089 2.93544 2.49745 3.36888 2.22581 3.90201C2.04942 4.24818 1.98004 4.61513 1.94787 5.00891C1.91697 5.38703 1.91698 5.85035 1.91699 6.40769V13.9689C1.91698 14.5263 1.91697 14.9896 1.94787 15.3677C1.98004 15.7615 2.04942 16.1284 2.22581 16.4746C2.49745 17.0077 2.93089 17.4412 3.46402 17.7128C3.8102 17.8892 4.17714 17.9586 4.57092 17.9908C4.94904 18.0217 5.41236 18.0217 5.9697 18.0217H13.531C14.0884 18.0217 14.5517 18.0217 14.9298 17.9908C15.3236 17.9586 15.6905 17.8892 16.0367 17.7128C16.5698 17.4412 17.0033 17.0077 17.2749 16.4746C17.4513 16.1284 17.5207 15.7615 17.5529 15.3677C17.5838 14.9896 17.5837 14.5262 17.5837 13.9689L17.5837 9.35497L16.0837 9.35499L16.0837 13.9383C16.0837 14.5341 16.0832 14.9358 16.0578 15.2456C16.0333 15.5466 15.9891 15.6942 15.9384 15.7936C15.8106 16.0445 15.6066 16.2485 15.3557 16.3763C15.2563 16.427 15.1087 16.4712 14.8077 16.4958C14.4979 16.5211 14.0962 16.5217 13.5004 16.5217H6.00033C5.40456 16.5217 5.00285 16.5211 4.69307 16.4958C4.39205 16.4712 4.24448 16.427 4.14501 16.3763C3.89412 16.2485 3.69015 16.0445 3.56232 15.7936C3.51163 15.6942 3.46748 15.5466 3.44289 15.2456C3.41758 14.9358 3.41699 14.5341 3.41699 13.9383V6.43832C3.41699 5.84255 3.41758 5.44083 3.44289 5.13106C3.46748 4.83004 3.51163 4.68247 3.56232 4.58299C3.69015 4.33211 3.89412 4.12814 4.14501 4.00031C4.24448 3.94962 4.39205 3.90547 4.69307 3.88087C5.00285 3.85556 5.40456 3.85498 6.00033 3.85498H10.5837V2.35498L5.9697 2.35498Z" fill="#AAAAAA"/>
</svg>
