<svg width="32" height="32" viewBox="0 0 32 32" fill="none" xmlns="http://www.w3.org/2000/svg">
<path d="M14.5037 4L13.0075 7.5611C12.7082 7.65087 12.4389 7.8005 12.1696 7.95012L8.60848 6.45387L6.45387 8.60848L7.95012 12.1696C7.8005 12.4688 7.6808 12.7082 7.5611 13.0075L4 14.5037V17.4963L7.5611 18.9925C7.6808 19.2918 7.8005 19.5312 7.95012 19.8304L6.45387 23.3915L8.60848 25.5461L12.1696 24.0499C12.4389 24.1696 12.7082 24.3192 13.0075 24.4389L14.5037 28H17.4963L18.9925 24.4389C19.2618 24.3192 19.5611 24.1995 19.8304 24.0499L23.3915 25.5461L25.5461 23.3915L24.0499 19.8304C24.1696 19.5611 24.3192 19.2618 24.4389 18.9925L28 17.4963V14.5037L24.4389 13.0075C24.3491 12.7382 24.1995 12.4389 24.0499 12.1696L25.5461 8.60848L23.3915 6.45387L19.8304 7.95012C19.5611 7.83042 19.2618 7.6808 18.9925 7.5611L17.4963 4L14.5037 4ZM16 11.4813C18.4838 11.4813 20.4888 13.4863 20.4888 15.9701C20.4888 18.4539 18.4838 20.4589 16 20.4589C13.5162 20.4589 11.5112 18.4539 11.5112 15.9701C11.5112 13.4863 13.5162 11.4813 16 11.4813Z" fill="#AAAAAA"/>
</svg>
