<svg width="32" height="32" viewBox="0 0 32 32" fill="none" xmlns="http://www.w3.org/2000/svg">
<g clip-path="url(#clip0_6985_11774)">
<circle cx="16" cy="16" r="16" fill="#B1DBFD"/>
<path fill-rule="evenodd" clip-rule="evenodd" d="M13.3333 12.6667C13.3333 11.9594 13.6143 11.2811 14.1144 10.781C14.6145 10.281 15.2928 10 16 10C16.7072 10 17.3855 10.281 17.8856 10.781C18.3857 11.2811 18.6667 11.9594 18.6667 12.6667C18.6667 13.3739 18.3857 14.0522 17.8856 14.5523C17.3855 15.0524 16.7072 15.3333 16 15.3333C15.2928 15.3333 14.6145 15.0524 14.1144 14.5523C13.6143 14.0522 13.3333 13.3739 13.3333 12.6667ZM13.3333 16.6667C12.4493 16.6667 11.6014 17.0179 10.9763 17.643C10.3512 18.2681 10 19.1159 10 20C10 20.5304 10.2107 21.0391 10.5858 21.4142C10.9609 21.7893 11.4696 22 12 22H20C20.5304 22 21.0391 21.7893 21.4142 21.4142C21.7893 21.0391 22 20.5304 22 20C22 19.1159 21.6488 18.2681 21.0237 17.643C20.3986 17.0179 19.5507 16.6667 18.6667 16.6667H13.3333Z" fill="#7EC4FC"/>
</g>
<defs>
<clipPath id="clip0_6985_11774">
<path d="M0 16C0 7.16344 7.16344 0 16 0C24.8366 0 32 7.16344 32 16C32 24.8366 24.8366 32 16 32C7.16344 32 0 24.8366 0 16Z" fill="white"/>
</clipPath>
</defs>
</svg>
