<svg width="54" height="55" viewBox="0 0 54 55" fill="none" xmlns="http://www.w3.org/2000/svg">
<path fill-rule="evenodd" clip-rule="evenodd" d="M27 2.97617C28.2426 2.97617 29.25 3.98353 29.25 5.22617L29.25 49.7739C29.25 51.0165 28.2426 52.0239 27 52.0239C25.7574 52.0239 24.75 51.0165 24.75 49.7739V5.22617C24.75 3.98353 25.7574 2.97617 27 2.97617Z" fill="#D1D1D1"/>
<path fill-rule="evenodd" clip-rule="evenodd" d="M2.47614 27.5C2.47614 26.2574 3.48349 25.25 4.72613 25.25H49.2739C50.5165 25.25 51.5239 26.2574 51.5239 27.5C51.5239 28.7427 50.5165 29.75 49.2739 29.75L4.72614 29.75C3.48349 29.75 2.47614 28.7427 2.47614 27.5Z" fill="#D1D1D1"/>
</svg>
