<svg width="44" height="44" viewBox="0 0 44 44" fill="none" xmlns="http://www.w3.org/2000/svg">
<path fill-rule="evenodd" clip-rule="evenodd" d="M40.3334 21.9998C40.3334 32.1251 32.1252 40.3332 22 40.3332C11.8748 40.3332 3.66669 32.1251 3.66669 21.9998C3.66669 11.8746 11.8748 3.6665 22 3.6665C32.1252 3.6665 40.3334 11.8746 40.3334 21.9998ZM22 36.6665C30.1002 36.6665 36.6667 30.1 36.6667 21.9998C36.6667 13.8997 30.1002 7.33317 22 7.33317C13.8998 7.33317 7.33335 13.8997 7.33335 21.9998C7.33335 30.1 13.8998 36.6665 22 36.6665Z" fill="#D1D1D1"/>
<path fill-rule="evenodd" clip-rule="evenodd" d="M14.287 14.2868C15.003 13.5708 16.1638 13.5708 16.8797 14.2868L29.713 27.1201C30.429 27.8361 30.429 28.9969 29.713 29.7129C28.9971 30.4288 27.8363 30.4288 27.1203 29.7129L14.287 16.8795C13.571 16.1636 13.571 15.0028 14.287 14.2868Z" fill="#D1D1D1"/>
<path fill-rule="evenodd" clip-rule="evenodd" d="M14.287 29.7129C13.571 28.9969 13.571 27.8361 14.287 27.1201L27.1203 14.2868C27.8363 13.5708 28.9971 13.5708 29.713 14.2868C30.429 15.0028 30.429 16.1636 29.713 16.8795L16.8797 29.7129C16.1638 30.4288 15.003 30.4288 14.287 29.7129Z" fill="#D1D1D1"/>
</svg>
