<svg width="25" height="24" viewBox="0 0 25 24" fill="none" xmlns="http://www.w3.org/2000/svg">
<path fill-rule="evenodd" clip-rule="evenodd" d="M9.90729 7.40534C9.27184 7.48732 8.97752 7.63187 8.77721 7.82409C8.57689 8.01631 8.42626 8.29874 8.34083 8.90851C8.25191 9.54313 8.25 10.3906 8.25 11.6364V15.9545C8.25 17.2003 8.25191 18.0478 8.34083 18.6824C8.42626 19.2921 8.57689 19.5746 8.77722 19.7668C8.97753 19.959 9.27185 20.1036 9.90729 20.1856C10.5686 20.2709 11.4518 20.2727 12.75 20.2727H15.45C16.7482 20.2727 17.6313 20.2709 18.2927 20.1856C18.9281 20.1036 19.2224 19.959 19.4228 19.7668C19.6231 19.5746 19.7737 19.2921 19.8592 18.6824C19.9481 18.0478 19.95 17.2003 19.95 15.9545V11.6364C19.95 10.3906 19.9481 9.54313 19.8592 8.90851C19.7737 8.29874 19.6231 8.01632 19.4228 7.8241C19.2225 7.63187 18.9281 7.48732 18.2927 7.40534C17.6314 7.32002 16.7482 7.31818 15.45 7.31818H12.75C11.4518 7.31818 10.5686 7.32002 9.90729 7.40534ZM12.6865 5.59091H15.5135C16.7322 5.59088 17.7372 5.59085 18.5325 5.69347C19.3676 5.8012 20.1051 6.03608 20.6956 6.60272C21.2861 7.16935 21.5308 7.87704 21.6431 8.67835C21.7501 9.4416 21.75 10.406 21.75 11.5754V16.0155C21.75 17.1849 21.7501 18.1493 21.6431 18.9125C21.5308 19.7138 21.2861 20.4215 20.6956 20.9882C20.1051 21.5548 19.3676 21.7897 18.5325 21.8974C17.7372 22.0001 16.7322 22 15.5135 22H12.6865C11.4678 22 10.4628 22.0001 9.66744 21.8974C8.83239 21.7897 8.09491 21.5548 7.50441 20.9882C6.91392 20.4215 6.66915 19.7138 6.55688 18.9125C6.44994 18.1493 6.44997 17.1849 6.45 16.0155V11.5754C6.44997 10.4059 6.44994 9.4416 6.55688 8.67835C6.66915 7.87705 6.91392 7.16936 7.50442 6.60272C8.09491 6.03608 8.8324 5.8012 9.66744 5.69347C10.4628 5.59085 11.4678 5.59088 12.6865 5.59091Z" fill="white"/>
<path fill-rule="evenodd" clip-rule="evenodd" d="M8.01974 4.84605C7.13922 4.95965 6.67293 5.16743 6.34081 5.48613ZM6.34081 5.48613C6.0087 5.80483 5.79216 6.25228 5.67378 7.09723C5.55191 7.96703 5.55 9.11982 5.55 10.7727V15.9545C5.55 16.9085 6.35588 17.6818 7.35 17.6818V19.4091C5.36179 19.4091 3.75 17.8625 3.75 15.9545L3.75 10.7095C3.74998 9.13474 3.74996 7.8654 3.88983 6.86708C4.03505 5.83059 4.34572 4.95789 5.06802 4.26477C5.79032 3.57166 6.69977 3.27353 7.7799 3.13418C8.82026 2.99996 10.143 2.99998 11.7842 3L15.45 3C17.4383 3 19.05 4.54667 19.05 6.45455H17.25C17.25 5.50059 16.4441 4.72727 15.45 4.72727H11.85C10.1275 4.72727 8.92616 4.72911 8.01974 4.84605" fill="white"/>
</svg>
