<svg width="4" height="16" viewBox="0 0 4 16" fill="none" xmlns="http://www.w3.org/2000/svg">
<path d="M3.5 2.4502C3.5 3.27862 2.82843 3.9502 2 3.9502C1.17157 3.9502 0.5 3.27862 0.5 2.4502C0.5 1.62177 1.17157 0.950195 2 0.950195C2.82843 0.950195 3.5 1.62177 3.5 2.4502Z" fill="#1D1D1D"/>
<path d="M3.5 8.4502C3.5 9.27862 2.82843 9.9502 2 9.9502C1.17157 9.9502 0.5 9.27862 0.5 8.4502C0.5 7.62177 1.17157 6.9502 2 6.9502C2.82843 6.9502 3.5 7.62177 3.5 8.4502Z" fill="#1D1D1D"/>
<path d="M3.5 14.4502C3.5 15.2786 2.82843 15.9502 2 15.9502C1.17157 15.9502 0.500001 15.2786 0.500001 14.4502C0.500001 13.6218 1.17157 12.9502 2 12.9502C2.82843 12.9502 3.5 13.6218 3.5 14.4502Z" fill="#1D1D1D"/>
</svg>
