<svg width="20" height="16" viewBox="0 0 20 16" fill="none" xmlns="http://www.w3.org/2000/svg">
<path d="M18.9717 1.75768C18.6672 1.63333 18.3318 1.60065 18.0083 1.66379C17.6847 1.72693 17.3877 1.88303 17.155 2.11223L15 5.2248L11.1783 0.478371C10.8658 0.17207 10.4419 0 10 0C9.55806 0 9.13421 0.17207 8.82167 0.478371L5 5.2248L2.845 2.11223C2.61191 1.8838 2.31497 1.72824 1.99172 1.66523C1.66846 1.60222 1.33341 1.63457 1.02891 1.75821C0.724409 1.88184 0.464138 2.0912 0.280997 2.35982C0.0978568 2.62845 7.03739e-05 2.94427 0 3.26736L0 11.9154C0.00132321 12.9983 0.440735 14.0365 1.22185 14.8022C2.00296 15.5679 3.062 15.9987 4.16667 16H15.8333C16.938 15.9987 17.997 15.5679 18.7782 14.8022C19.5593 14.0365 19.9987 12.9983 20 11.9154V3.26736C20.0001 2.94424 19.9024 2.62835 19.7194 2.35963C19.5364 2.09091 19.2761 1.88144 18.9717 1.75768Z" fill="#F7CC33"/>
</svg>
