<svg width="24" height="24" viewBox="0 0 24 24" fill="none" xmlns="http://www.w3.org/2000/svg">
<path fill-rule="evenodd" clip-rule="evenodd" d="M11.9951 3.49512C7.3007 3.49512 3.49512 7.3007 3.49512 11.9951C3.49512 16.6895 7.3007 20.4951 11.9951 20.4951C16.6895 20.4951 20.4951 16.6895 20.4951 11.9951C20.4951 7.3007 16.6895 3.49512 11.9951 3.49512ZM1.99512 11.9951C1.99512 6.47227 6.47227 1.99512 11.9951 1.99512C17.518 1.99512 21.9951 6.47227 21.9951 11.9951C21.9951 17.518 17.518 21.9951 11.9951 21.9951C6.47227 21.9951 1.99512 17.518 1.99512 11.9951Z" fill="#AAAAAA"/>
<path fill-rule="evenodd" clip-rule="evenodd" d="M18.1082 8.07785C18.3939 8.3778 18.3823 8.85253 18.0824 9.1382L10.9424 15.9382C10.653 16.2138 10.1983 16.2141 9.90856 15.9388L5.90856 12.1388C5.60825 11.8536 5.59608 11.3788 5.88137 11.0785C6.16666 10.7782 6.64138 10.7661 6.94168 11.0513L10.4245 14.36L17.0479 8.05199C17.3478 7.76633 17.8226 7.7779 18.1082 8.07785Z" fill="#AAAAAA"/>
</svg>
