<svg width="28" height="28" viewBox="0 0 28 28" fill="none" xmlns="http://www.w3.org/2000/svg">
<path d="M18.0833 16.3333H17.1617L16.835 16.0183C18.0179 14.6464 18.668 12.8948 18.6667 11.0833C18.6667 9.58349 18.2219 8.11734 17.3886 6.87026C16.5554 5.62319 15.371 4.65121 13.9854 4.07725C12.5997 3.50329 11.0749 3.35311 9.6039 3.64572C8.13288 3.93832 6.78166 4.66056 5.72111 5.72111C4.66056 6.78166 3.93832 8.13288 3.64572 9.6039C3.35311 11.0749 3.50329 12.5997 4.07725 13.9854C4.65121 15.371 5.62319 16.5554 6.87026 17.3886C8.11734 18.2219 9.58349 18.6667 11.0833 18.6667C12.9617 18.6667 14.6883 17.9783 16.0183 16.835L16.3333 17.1617V18.0833L22.1667 23.905L23.905 22.1667L18.0833 16.3333ZM11.0833 16.3333C8.17834 16.3333 5.83334 13.9883 5.83334 11.0833C5.83334 8.17834 8.17834 5.83334 11.0833 5.83334C13.9883 5.83334 16.3333 8.17834 16.3333 11.0833C16.3333 13.9883 13.9883 16.3333 11.0833 16.3333Z" fill="#AAAAAA"/>
</svg>
