<svg width="28" height="28" viewBox="0 0 28 28" fill="none" xmlns="http://www.w3.org/2000/svg">
<path d="M12.6908 3.5L11.3815 6.61596C11.1197 6.69451 10.884 6.82544 10.6484 6.95636L7.53242 5.64713L5.64713 7.53242L6.95636 10.6484C6.82544 10.9102 6.7207 11.1197 6.61596 11.3815L3.5 12.6908V15.3092L6.61596 16.6185C6.7207 16.8803 6.82544 17.0898 6.95636 17.3516L5.64713 20.4676L7.53242 22.3529L10.6484 21.0436C10.884 21.1484 11.1197 21.2793 11.3815 21.384L12.6908 24.5H15.3092L16.6185 21.384C16.8541 21.2793 17.116 21.1746 17.3516 21.0436L20.4676 22.3529L22.3529 20.4676L21.0436 17.3516C21.1484 17.116 21.2793 16.8541 21.384 16.6185L24.5 15.3092V12.6908L21.384 11.3815C21.3055 11.1459 21.1746 10.884 21.0436 10.6484L22.3529 7.53242L20.4676 5.64713L17.3516 6.95636C17.116 6.85162 16.8541 6.7207 16.6185 6.61596L15.3092 3.5L12.6908 3.5ZM14 10.0461C16.1733 10.0461 17.9277 11.8005 17.9277 13.9738C17.9277 16.1471 16.1733 17.9015 14 17.9015C11.8267 17.9015 10.0723 16.1471 10.0723 13.9738C10.0723 11.8005 11.8267 10.0461 14 10.0461Z" fill="black"/>
</svg>
