<svg width="24" height="24" viewBox="0 0 24 24" fill="none" xmlns="http://www.w3.org/2000/svg">
<path d="M9.88328 14.1177C10.3239 14.5905 10.9433 14.7148 11.55 14.7148C11.759 14.7148 11.9695 14.7001 12.1736 14.6614L9.35113 12.4648C9.35588 13.0608 9.46497 13.6688 9.88328 14.1177Z" fill="#AAAAAA"/>
<path d="M11.55 5.25C9.09934 5.25 6.89425 6.22723 5.25581 7.57073L5.82864 8.07195L6.45506 8.53432L7.20251 9.10396L7.80914 9.55971L8.39137 10.0421C10.1996 8.38495 12.9897 8.40525 14.7739 10.103C16.085 11.3507 16.0623 13.4542 14.7247 14.6782C14.6657 14.7322 14.5446 14.8349 14.5446 14.8349L17.8827 17.4131C17.9143 17.389 17.9457 17.3647 17.9768 17.3404C19.6457 16.0347 20.8535 14.235 20.85 12.4217C20.8499 12.3884 20.8477 12.3553 20.8432 12.3224C20.6182 10.6631 19.4664 8.90083 17.8442 7.5707C16.2058 6.22722 14.0007 5.25 11.55 5.25Z" fill="#AAAAAA"/>
<path d="M5.12317 17.3404C6.81579 18.6646 9.11435 19.593 11.55 19.593C13.4358 19.593 15.2394 19.0364 16.7432 18.1706L13.3441 15.5557C11.7015 16.2315 9.75305 15.939 8.37529 14.6782C7.35435 13.744 7.09942 12.2974 7.61894 11.11L4.23173 8.53432C3.15964 9.69347 2.43087 11.0387 2.25681 12.3223C2.25235 12.3553 2.25007 12.3884 2.25001 12.4217C2.24643 14.235 3.45424 16.0347 5.12317 17.3404Z" fill="#AAAAAA"/>
<path fill-rule="evenodd" clip-rule="evenodd" d="M2.98778 4.24101C2.6928 4.01307 2.26888 4.06742 2.04094 4.3624C1.813 4.65739 1.86735 5.0813 2.16233 5.30924L21.9623 20.6092C22.2573 20.8371 22.6812 20.7828 22.9091 20.4878C23.1371 20.1928 23.0827 19.7689 22.7877 19.541L13.7472 12.5551C13.7484 12.5111 13.749 12.4671 13.749 12.4231C13.749 11.8138 13.6447 11.1878 13.2175 10.7279C12.7773 10.254 12.158 10.1282 11.55 10.1282C11.2743 10.1282 10.9963 10.1541 10.7337 10.2265L2.98778 4.24101ZM10.7337 10.2265L13.7472 12.5551C13.7346 13.0332 13.6483 13.5134 13.3832 13.9078L9.67653 11C9.73497 10.9043 9.80315 10.8132 9.88245 10.7279C10.1231 10.4688 10.4172 10.3138 10.7337 10.2265Z" fill="#AAAAAA"/>
<path d="M9.88245 10.7279C9.80315 10.8132 9.73497 10.9043 9.67653 11L13.3832 13.9078C13.6483 13.5134 13.7346 13.0332 13.7472 12.5551L10.7337 10.2265C10.4172 10.3138 10.1231 10.4688 9.88245 10.7279Z" fill="#AAAAAA"/>
</svg>
