<svg width="120" height="120" viewBox="0 0 120 120" fill="none" xmlns="http://www.w3.org/2000/svg">
<path d="M25.4464 35.8636C25.3535 36.4276 25.3854 37.0051 25.5398 37.5555C25.6943 38.1058 25.9675 38.6156 26.3403 39.0489C26.7131 39.4822 27.1763 39.8285 27.6974 40.0635C28.2185 40.2984 28.7848 40.4162 29.3563 40.4086L38.934 68.2771L45.0453 64.0771L33.2479 36.1652C33.1715 35.2059 32.7458 34.3079 32.0515 33.6415C31.3573 32.975 30.4427 32.5864 29.4811 32.5492C28.5194 32.5121 27.5776 32.8289 26.8339 33.4398C26.0903 34.0507 25.5966 34.9131 25.4464 35.8636Z" fill="#968285"/>
<path d="M75.4359 45.2929C71.1827 50.132 60.6951 58.6598 52.0555 64.532C50.188 65.8012 48.4058 66.9444 46.7922 67.9012C45.7022 68.5473 44.6886 69.1065 43.7762 69.5627C43.1638 69.8678 42.495 70.0431 41.8117 70.0777C41.1284 70.1123 40.4453 70.0055 39.8052 69.7638C39.1652 69.5222 38.5819 69.151 38.0919 68.6735C37.6019 68.196 37.2159 67.6224 36.9578 66.9888L30.9756 52.516L33.0454 51.1438L38.149 47.7586L39.3081 46.9917L44.0939 58.3899L49.1407 54.339L52.2738 51.8237L66.5566 40.3615L67.7886 39.9958L70.6626 42.8006L72.6951 44.7852L74.6069 45.1172C74.8927 45.1669 75.1697 45.2254 75.4359 45.2929Z" fill="#9E9E9E"/>
<path d="M113.595 85.0584C113.892 85.4347 114.199 85.8093 114.506 86.1856C113.448 88.3577 112.259 90.4634 110.945 92.4909C110.847 92.4217 110.75 92.3525 110.652 92.2832C110.637 92.2748 110.622 92.2653 110.608 92.2548C110.244 91.9957 109.878 91.74 109.514 91.4809V91.4791C109.214 90.4574 109.046 89.4015 109.015 88.3371C109.203 88.294 109.373 88.1943 109.502 88.0514C109.631 87.9085 109.713 87.7294 109.737 87.5383C109.761 87.3473 109.725 87.1535 109.635 86.9832C109.545 86.813 109.405 86.6746 109.234 86.5868C109.186 86.5033 109.152 86.443 109.104 86.3578C109.106 86.3365 109.109 86.3134 109.111 86.2921C109.39 84.075 112.216 83.301 113.595 85.0584Z" fill="white"/>
<path d="M116.782 77.4608C116.995 78.0466 117.189 78.6389 117.364 79.2377C117.243 79.5927 117.12 79.9466 116.993 80.2992C116.945 80.1128 116.895 79.9264 116.844 79.74C116.555 78.7037 116.208 77.6843 115.805 76.6868C115.475 75.8685 115.109 75.0673 114.708 74.2832C112.527 70.024 109.366 66.3433 105.485 63.5436C103.881 63.1726 102.429 62.3189 101.325 61.0974C100.927 60.6585 100.594 60.1647 100.337 59.6312C100.5 59.6081 100.663 59.5761 100.823 59.5424C100.873 59.5318 100.924 59.5193 100.974 59.5087L100.994 59.5051C101.168 59.4646 101.327 59.3745 101.452 59.2457C101.577 59.1168 101.661 58.9547 101.696 58.7788C101.731 58.6029 101.714 58.4207 101.648 58.2542C101.581 58.0876 101.468 57.9438 101.322 57.8401C101.231 57.7744 101.139 57.7105 101.049 57.6466C100.91 57.5454 100.77 57.4495 100.63 57.3501C100.615 57.3409 100.601 57.3308 100.587 57.3199C100.427 57.2063 100.267 57.0963 100.109 56.9809C100.232 56.5853 100.444 56.2233 100.729 55.9229C101.721 54.8986 103.493 54.9217 104.65 55.756C105.81 56.5903 106.392 58.0513 106.466 59.475C106.532 60.6945 106.269 61.9016 105.923 63.0785C106.01 63.1424 106.101 63.2028 106.188 63.2685C107.786 64.4529 109.264 65.7912 110.601 67.2643C109.828 65.4324 109.548 63.043 109.749 61.3974C109.978 59.5229 110.888 57.7424 111.634 55.969C112.527 53.8389 115.573 53.8105 116.432 55.9548C116.441 55.9762 116.45 55.9957 116.457 56.017C116.313 56.1608 116.175 56.3099 116.041 56.4643C115.874 56.6589 115.77 56.8995 115.742 57.1544C115.713 57.4094 115.763 57.667 115.884 57.8934C116.004 58.1197 116.191 58.3044 116.418 58.4232C116.645 58.5419 116.903 58.5893 117.158 58.559L117.185 58.5554C117.295 59.1883 117.358 59.8285 117.373 60.4708C117.395 62.2678 117.045 64.0499 116.347 65.7055C115.648 67.3611 114.614 68.8545 113.311 70.0921C113.226 70.172 113.143 70.2501 113.056 70.3264C113.878 71.4958 114.617 72.722 115.266 73.9957C115.842 75.1183 116.348 76.2756 116.782 77.4608Z" fill="white"/>
<path d="M82.5772 60.8077L82.0411 97.626L38.7346 96.3834L45.6506 81.1171C45.6009 80.6272 48.6861 77.1887 48.6683 76.6793C48.6151 75.1864 49.7299 73.8035 49.9109 72.2414C50.2802 69.0195 48.166 56.8526 49.1405 54.339C49.5557 53.2166 50.0876 52.1409 50.7275 51.1296C51.2814 50.2917 51.8494 49.7272 52.3926 49.5231L53.9938 45.7917L55.4139 43.6615L66.5565 40.3615L67.7885 39.9958L70.6624 42.8006L72.695 44.7852L74.6068 45.1172C74.8926 45.1669 75.1695 45.2254 75.4358 45.2929C76.7182 45.5886 77.9135 46.1808 78.9257 47.0219C82.263 49.8568 82.6518 55.1893 82.5772 60.8077Z" fill="#9E9E9E"/>
<path d="M107.448 97.3495C106.227 98.8814 104.933 100.35 103.566 101.755L98.8828 101.759L73.6988 101.787L69.1651 101.793L66.1509 101.796L61.6669 101.8L58.2177 101.803L51.8467 101.81L48.0887 101.816L40.1751 101.823L36.3976 101.828L25.9296 101.839L19.3544 101.846L17.5899 101.848C17.1976 101.447 16.8112 101.039 16.4308 100.626C15.4828 99.5986 14.571 98.5388 13.6953 97.4471L17.3485 97.4436L19.8373 97.4418L25.5994 97.4347L36.7189 97.424L40.4769 97.4205L41.9964 97.4187H42.0018L43.1947 97.4169L43.729 97.4152L45.0976 97.4134H45.6763L49.7343 97.4098L58.4876 97.3992L62.3396 97.3956L66.0284 97.3921L69.4864 97.3885L74.4479 97.3832L100.947 97.3566L107.448 97.3495Z" fill="#CCCCCC"/>
<path d="M47.5325 42.066L47.5228 42.067C47.0107 42.1146 46.5007 41.9569 46.1048 41.6285C45.709 41.3 45.4599 40.8278 45.4123 40.3157L44.4028 29.5407C44.22 27.6104 44.4273 25.6631 45.0122 23.8145C46.1587 20.2066 48.6533 17.1803 51.9761 15.3663C53.6918 14.4321 55.5789 13.855 57.5236 13.6697C65.4797 12.9117 68.3873 14.5687 73.3019 26.7031C78.2166 38.8374 74.313 37.4946 74.313 37.4946C74.3376 37.7542 74.3097 38.0162 74.2308 38.2649C74.0762 38.75 73.74 39.1566 73.2926 39.3997C73.063 39.5242 72.8108 39.6013 72.5508 39.6264C63.145 42.0172 53.6541 44.5339 47.5308 42.0662L47.5325 42.066Z" fill="#69696B"/>
<path d="M65.0392 23.8794C66.2199 25.6264 66.8564 27.684 66.8684 29.7925C66.8803 31.901 66.2672 33.9658 65.1064 35.726C63.9456 37.4862 62.2892 38.863 60.3464 39.6824C58.4036 40.5018 56.2615 40.7271 54.1908 40.3298C52.82 40.0713 51.5141 39.5433 50.3489 38.7765C49.1836 38.0097 48.1821 37.0193 47.4023 35.8626C46.2241 34.1162 45.5893 32.0601 45.578 29.9535C45.5667 27.8469 46.1794 25.7841 47.3388 24.0252C48.4982 22.2662 50.1525 20.89 52.0929 20.0699C54.0334 19.2498 56.1733 19.0227 58.2427 19.417C59.6146 19.674 60.9218 20.2008 62.0884 20.9669C63.2551 21.733 64.2581 22.7231 65.0392 23.8798L65.0392 23.8794Z" fill="#9F999A"/>
<path d="M41.0673 30.7378C40.9229 29.2111 41.0869 27.671 41.5495 26.209C41.6567 22.6326 42.6944 19.3932 47.0564 19.5292C48.4048 18.7957 49.887 18.3409 51.4147 18.1918L53.5703 17.979C53.5945 17.9766 53.6187 17.9742 53.643 17.972C55.1364 17.833 56.6426 17.9895 58.0755 18.4326C59.5085 18.8757 60.8401 19.5967 61.9944 20.5544C63.1487 21.5122 64.1031 22.6879 64.803 24.0145C65.5029 25.341 65.9347 26.7925 66.0737 28.2859L66.0939 28.5017L61.5333 28.9476L59.5706 24.7472L59.6674 29.1309L57.312 29.362L56.3221 27.2429L56.3705 29.4531C52.8732 32.5332 47.5699 32.6947 41.0896 30.9538L41.0673 30.7378Z" fill="#69696B"/>
<path d="M55.6554 40.9625C55.6166 41.3175 55.6781 41.6763 55.8332 41.998C55.9113 42.1628 56.0121 42.3158 56.1326 42.4527C56.2358 42.5692 56.3524 42.6731 56.4799 42.7622C56.8578 43.0253 57.3169 43.1451 57.7751 43.1002C57.8036 43.0972 57.8321 43.0937 57.8605 43.0897C57.889 43.0857 57.9174 43.081 57.9457 43.0757C57.9743 43.0706 58.0027 43.0647 58.0309 43.058C58.0591 43.0514 58.0873 43.0441 58.1157 43.0364L59.7074 42.5903L61.4912 37.6165L61.9001 41.981L69.1379 39.9659L67.4027 21.4449L55.0664 22.6604L55.4047 22.9862C56.5289 24.0804 57.3293 25.4635 57.718 26.9832C58.1039 28.5233 58.2229 30.1181 58.0701 31.6984C57.9274 33.2963 57.6315 34.8769 57.1866 36.4182C56.7994 37.7831 56.3338 39.1245 55.7922 40.4358C55.7222 40.6041 55.6761 40.7814 55.6554 40.9625Z" fill="#69696B"/>
<path d="M57.3003 99.3566C57.0882 99.3565 56.8788 99.3091 56.6872 99.218L22.5121 100.09C22.2499 99.9657 22.0315 99.7649 21.8858 99.5139C21.7401 99.263 21.6739 98.9737 21.696 98.6844C21.7181 98.3951 21.8275 98.1193 22.0096 97.8934C22.1918 97.6675 22.4382 97.5022 22.7163 97.4193L45.0746 90.7527C45.3061 90.6837 45.5513 90.6743 45.7875 90.7254L80.372 94.9407C80.678 95.0069 80.954 95.1714 81.1578 95.4091C81.3616 95.6468 81.482 95.9446 81.5006 96.2572C81.5193 96.5698 81.4351 96.8798 81.261 97.1401C81.0869 97.4003 80.8324 97.5964 80.5364 97.6985L57.7686 99.2777C57.6179 99.3299 57.4597 99.3565 57.3003 99.3566Z" fill="#616066"/>
<path d="M58.5572 96.9776C58.4029 96.9777 58.2512 96.9382 58.1164 96.8629L30.3613 98.1596C30.2037 98.0712 30.0763 97.9373 29.9958 97.7756C29.9153 97.6138 29.8855 97.4315 29.91 97.2524C29.9346 97.0734 30.0125 96.9059 30.1337 96.7718C30.2548 96.6377 30.4135 96.5432 30.5891 96.5005L40.6371 94.0618C40.7939 94.0239 40.958 94.0287 41.1123 94.0757L66.9147 94.0447C67.0984 94.1009 67.2593 94.2145 67.3738 94.3687C67.4883 94.523 67.5505 94.7098 67.5511 94.9019C67.5518 95.094 67.491 95.2813 67.3776 95.4363C67.2641 95.5914 67.1041 95.706 66.9208 95.7635L58.8257 96.9366C58.7388 96.9638 58.6483 96.9776 58.5572 96.9776Z" fill="#69696B"/>
<path d="M55.6357 95.4983C56.1162 95.808 56.6586 96.0086 57.225 96.086C57.7913 96.1634 58.3677 96.1157 58.9136 95.9462C59.4595 95.7767 59.9616 95.4896 60.3845 95.1051C60.8075 94.7206 61.1409 94.248 61.3615 93.7207L90.7394 96.0284L89.3193 88.7503L59.0179 88.4616C58.1075 88.1498 57.1143 88.1828 56.2266 88.5544C55.3389 88.926 54.6183 89.6103 54.2014 90.4777C53.7845 91.345 53.7002 92.3352 53.9646 93.2605C54.229 94.1858 54.8236 94.9821 55.6357 95.4983Z" fill="#968285"/>
<path d="M72.988 48.0994C72.988 48.0994 77.4258 44.5491 82.7513 50.9396C86.3427 55.2493 93.2707 81.3025 93.8451 92.0986C93.8814 92.7818 93.7762 93.4651 93.5361 94.1057C93.296 94.7463 92.9262 95.3304 92.4498 95.8213C91.9734 96.3123 91.4008 96.6996 90.7677 96.9589C90.1347 97.2182 89.4549 97.344 88.7709 97.3283L73.1122 97.0558L71.3612 87.2126L83.724 87.359L72.988 48.0994Z" fill="#9E9E9E"/>
<path d="M55.3995 99.3606C54.8623 99.3602 54.3306 99.2525 53.8356 99.044L22.1595 99.7667C21.3235 99.4181 20.6295 98.7977 20.1898 98.0058C19.7501 97.214 19.5903 96.2969 19.7362 95.403L18.5592 67.5844C18.7153 66.5908 19.2383 65.6917 20.0249 65.0649C20.8115 64.438 21.8046 64.1289 22.808 64.1986L52.2157 65.4183C52.7802 65.4553 53.3306 65.6105 53.8312 65.8739C54.3319 66.1374 54.7715 66.5031 55.1217 66.9473C55.4719 67.3916 55.7248 67.9046 55.864 68.4529C56.0032 69.0012 56.0256 69.5726 55.9297 70.1301L59.3752 96.0062C59.2132 96.9438 58.7257 97.7942 57.9985 98.4077C57.2713 99.0213 56.351 99.3587 55.3995 99.3606Z" fill="#616066"/>
<path d="M31.3465 16.539L18.127 16.5018C17.7726 16.5013 17.4326 16.6414 17.1814 16.8913C16.9301 17.1412 16.7882 17.4805 16.7868 17.8349L16.7388 35.3396C16.7381 35.6936 16.8779 36.0334 17.1275 36.2844C17.3772 36.5354 17.7162 36.677 18.0702 36.6781L25.4033 36.6994L31.2915 36.7154C31.6458 36.716 31.9858 36.5759 32.2368 36.3259C32.4878 36.0759 32.6292 35.7365 32.63 35.3822L32.6335 34.3473L32.6797 17.8793C32.6804 17.5248 32.5404 17.1846 32.2904 16.9333C32.0405 16.682 31.701 16.5402 31.3465 16.539Z" fill="#E6E6E6"/>
<path d="M30.4145 17.5846L19.0536 17.5527C18.7218 17.5522 18.4034 17.6834 18.1682 17.9173C17.9329 18.1512 17.8 18.4688 17.7986 18.8006L17.7666 30.055C17.7644 31.533 18.3485 32.9516 19.3907 33.9995C20.433 35.0474 21.8484 35.6392 23.3264 35.645L25.485 35.6503L30.3648 35.6645C30.6967 35.6652 31.0152 35.5342 31.2506 35.3002C31.4859 35.0662 31.6187 34.7484 31.6199 34.4166L31.6234 33.284L31.6625 18.8396C31.6632 18.5078 31.5322 18.1892 31.2982 17.9539C31.0642 17.7186 30.7464 17.5858 30.4145 17.5846Z" fill="white"/>
<path d="M29.1382 25.2745H20.2803C20.2104 25.2745 20.1413 25.2883 20.0768 25.315C20.0123 25.3417 19.9537 25.3809 19.9043 25.4303C19.8549 25.4796 19.8158 25.5382 19.7891 25.6027C19.7623 25.6672 19.7486 25.7364 19.7486 25.8062C19.7486 25.876 19.7623 25.9451 19.7891 26.0097C19.8158 26.0742 19.8549 26.1328 19.9043 26.1821C19.9537 26.2315 20.0123 26.2707 20.0768 26.2974C20.1413 26.3241 20.2104 26.3378 20.2803 26.3378H29.1382C29.2792 26.3378 29.4145 26.2818 29.5142 26.1821C29.6139 26.0824 29.6699 25.9472 29.6699 25.8062C29.6699 25.6652 29.6139 25.53 29.5142 25.4303C29.4145 25.3305 29.2792 25.2745 29.1382 25.2745Z" fill="#9E9E9E"/>
<path d="M22.2276 22.3598H20.2803C20.1392 22.3598 20.004 22.4158 19.9043 22.5155C19.8046 22.6152 19.7486 22.7504 19.7486 22.8914C19.7486 23.0324 19.8046 23.1677 19.9043 23.2674C20.004 23.3671 20.1392 23.4231 20.2803 23.4231H22.2276C22.3686 23.4231 22.5038 23.3671 22.6035 23.2674C22.7032 23.1677 22.7592 23.0324 22.7592 22.8914C22.7592 22.7504 22.7032 22.6152 22.6035 22.5155C22.5038 22.4158 22.3686 22.3598 22.2276 22.3598Z" fill="#9E9E9E"/>
<path d="M29.1382 29.9485H20.2803C20.1392 29.9485 20.004 30.0045 19.9043 30.1042C19.8046 30.2039 19.7486 30.3392 19.7486 30.4802C19.7486 30.6212 19.8046 30.7564 19.9043 30.8561C20.004 30.9558 20.1392 31.0118 20.2803 31.0118H29.1382C29.2792 31.0118 29.4145 30.9558 29.5142 30.8561C29.6139 30.7564 29.6699 30.6212 29.6699 30.4802C29.6699 30.3392 29.6139 30.2039 29.5142 30.1042C29.4145 30.0045 29.2792 29.9485 29.1382 29.9485Z" fill="#9E9E9E"/>
<path d="M29.1382 27.6124H20.2802C20.1394 27.6124 20.0044 27.6683 19.9049 27.7679C19.8054 27.8674 19.7495 28.0024 19.7495 28.1432C19.7495 28.284 19.8054 28.419 19.9049 28.5185C20.0044 28.618 20.1394 28.674 20.2802 28.674H29.1382C29.279 28.674 29.414 28.618 29.5135 28.5185C29.6131 28.419 29.669 28.284 29.669 28.1432C29.669 28.0024 29.6131 27.8674 29.5135 27.7679C29.414 27.6683 29.279 27.6124 29.1382 27.6124Z" fill="#9E9E9E"/>
<path d="M27.417 24.2397C26.795 24.2397 26.1869 24.0553 25.6697 23.7097C25.1526 23.3641 24.7495 22.873 24.5114 22.2983C24.2734 21.7236 24.2111 21.0913 24.3325 20.4812C24.4538 19.8712 24.7533 19.3108 25.1932 18.871C25.633 18.4312 26.1934 18.1316 26.8034 18.0103C27.4135 17.8889 28.0458 17.9512 28.6205 18.1893C29.1951 18.4273 29.6863 18.8304 30.0319 19.3476C30.3774 19.8647 30.5619 20.4728 30.5619 21.0948C30.5609 21.9286 30.2293 22.728 29.6397 23.3175C29.0501 23.9071 28.2508 24.2388 27.417 24.2397ZM27.417 18.1684C26.8382 18.1684 26.2724 18.34 25.7912 18.6616C25.3099 18.9831 24.9348 19.4402 24.7133 19.9749C24.4918 20.5096 24.4339 21.098 24.5468 21.6657C24.6597 22.2333 24.9384 22.7548 25.3477 23.164C25.7569 23.5733 26.2784 23.852 26.846 23.9649C27.4137 24.0778 28.0021 24.0199 28.5368 23.7984C29.0715 23.5769 29.5286 23.2018 29.8501 22.7206C30.1717 22.2394 30.3433 21.6736 30.3433 21.0948C30.3424 20.3189 30.0338 19.5751 29.4852 19.0265C28.9366 18.4779 28.1928 18.1693 27.417 18.1684Z" fill="#9E9E9E"/>
<path d="M28.7378 22.3129C28.5205 21.1914 28.0681 20.1286 27.4103 19.1947C27.3954 19.1705 27.3746 19.1505 27.3498 19.1366C27.3251 19.1227 27.2971 19.1154 27.2687 19.1154C27.2403 19.1154 27.2124 19.1227 27.1876 19.1366C27.1629 19.1505 27.142 19.1705 27.1272 19.1947C26.5543 20.1968 26.1881 21.3035 26.0502 22.4495C26.0248 22.6585 26.3528 22.6566 26.3781 22.4495C26.4241 22.0781 26.4959 21.7104 26.593 21.349C26.6055 21.3465 26.6178 21.3427 26.6296 21.3377C27.0655 21.1189 27.558 21.0387 28.0408 21.1079C28.045 21.1086 28.0491 21.1076 28.0533 21.1081C28.2127 21.5274 28.3359 21.9597 28.4216 22.4001C28.4616 22.607 28.7777 22.5194 28.7378 22.3129ZM26.711 20.9469C26.8614 20.4801 27.053 20.0276 27.2834 19.5946C27.5273 19.9672 27.739 20.3598 27.9164 20.7683C27.5063 20.7374 27.0945 20.7985 26.711 20.9469Z" fill="#9E9E9E"/>
</svg>
