<svg width="120" height="120" viewBox="0 0 120 120" fill="none" xmlns="http://www.w3.org/2000/svg">
<g clip-path="url(#clip0_949_1373)">
<path d="M109.326 96.139L99.5846 80.4818C99.5846 80.4818 114.337 86.0547 112.663 96.139H109.326Z" fill="#E5E5E5"/>
<path d="M8.35051 96.2429L7.98071 96.235C8.12374 91.7858 8.56244 87.3534 9.29343 82.9723C10.8925 73.5924 13.5515 67.4321 17.1966 64.6626L17.409 64.9901C8.89402 71.4595 8.35484 95.9957 8.35051 96.2429Z" fill="#E5E5E5"/>
<path d="M12.973 96.1471L12.6032 96.1393C12.6112 95.6962 12.8423 85.2521 16.6419 82.3654L16.8543 82.6929C13.2079 85.4631 12.9748 96.0406 12.973 96.1471Z" fill="#E5E5E5"/>
<path d="M19.5128 65.0264C20.5339 65.0264 21.3618 64.1307 21.3618 63.0256C21.3618 61.9206 20.5339 61.0248 19.5128 61.0248C18.4916 61.0248 17.6638 61.9206 17.6638 63.0256C17.6638 64.1307 18.4916 65.0264 19.5128 65.0264Z" fill="#1D93F3"/>
<path d="M18.5971 82.2334C19.6183 82.2334 20.4461 81.3376 20.4461 80.2326C20.4461 79.1275 19.6183 78.2318 18.5971 78.2318C17.5759 78.2318 16.7481 79.1275 16.7481 80.2326C16.7481 81.3376 17.5759 82.2334 18.5971 82.2334Z" fill="#1D93F3"/>
<path d="M12.1111 66.2258C12.4586 68.6276 11.553 70.7758 11.553 70.7758C11.553 70.7758 10.0839 69.0299 9.73638 66.6281C9.38889 64.2264 10.2946 62.0782 10.2946 62.0782C10.2946 62.0782 11.7637 63.8241 12.1111 66.2258Z" fill="#E5E5E5"/>
<path d="M18.155 72.0589C16.0299 72.8477 13.9173 72.2569 13.9173 72.2569C13.9173 72.2569 15.25 70.3874 17.3751 69.5986C19.5001 68.8099 21.6128 69.4006 21.6128 69.4006C21.6128 69.4006 20.28 71.2702 18.155 72.0589Z" fill="#E5E5E5"/>
<path d="M18.2233 87.2973C17.2615 87.6242 16.2372 87.672 15.253 87.4361C15.8779 86.5751 16.7196 85.928 17.6766 85.5728C18.6336 85.2176 19.6652 85.1694 20.6469 85.434C20.0037 86.274 19.168 86.9165 18.2233 87.2973Z" fill="#E5E5E5"/>
<path d="M119.815 96.5392H0.1849C0.135861 96.5392 0.088834 96.5181 0.0541586 96.4806C0.0194831 96.4431 0 96.3922 0 96.3391C0 96.2861 0.0194831 96.2352 0.0541586 96.1976C0.088834 96.1601 0.135861 96.139 0.1849 96.139H119.815C119.864 96.139 119.911 96.1601 119.946 96.1976C119.981 96.2352 120 96.2861 120 96.3391C120 96.3922 119.981 96.4431 119.946 96.4806C119.911 96.5181 119.864 96.5392 119.815 96.5392Z" fill="#CBCBCB"/>
<path d="M75.7705 105.763L74.2578 110.023L58.352 105.737L60.5845 99.449L75.7705 105.763Z" fill="#FFB7B7"/>
<path d="M79.9727 106.263L75.0952 120L74.9346 119.933C73.6242 119.388 72.5674 118.303 71.9967 116.915C71.4261 115.527 71.3883 113.95 71.8917 112.532L71.8918 112.532L74.8708 104.142L79.9727 106.263Z" fill="#2F2E41"/>
<path d="M51.6009 52.4194L44.6693 53.1217L44.3254 75.4392C44.4173 76.5329 44.9014 77.5442 45.6739 78.2565C46.4464 78.9688 47.446 79.3253 48.4585 79.2499L52.8533 78.9223L51.6009 52.4194Z" fill="#E5E5E5"/>
<path d="M76.0377 51.321L71.2949 51.2549L71.0139 77.7727C72.062 77.8106 73.106 77.6143 74.0808 77.1962C75.0557 76.7781 75.9405 76.1471 76.68 75.3426C77.4195 74.5381 77.9979 73.5773 78.3791 72.5202C78.7603 71.4631 78.9361 70.3323 78.8956 69.1985L76.0377 51.321Z" fill="#E5E5E5"/>
<path d="M48.5179 87.1933C48.4055 87.9625 48.2425 88.722 48.03 89.4659C47.7907 90.1942 47.4212 90.8676 47.2023 91.6034C46.5048 93.9486 47.4718 96.5634 49.0162 98.3736C50.3555 99.9372 52.0842 101.048 53.9939 101.572C55.3872 101.951 56.8358 102.006 58.2716 102.059C62.2475 102.204 66.3256 102.335 70.093 100.952C71.2832 100.505 72.4329 99.9396 73.5274 99.264C73.873 99.0858 74.1775 98.8264 74.4186 98.5047C74.7059 98.062 74.7427 97.4879 74.7402 96.947C74.7317 95.1231 74.39 93.3086 74.4711 91.4868C74.5161 90.4778 74.6906 89.4695 74.6047 88.4635C74.4858 87.321 74.0435 86.2462 73.3384 85.3862C72.6332 84.5262 71.6997 83.923 70.6656 83.6592C69.5969 83.4108 68.4884 83.5462 67.4003 83.6594C64.576 83.953 61.7397 84.0903 58.9024 84.0705C56.0035 84.0505 53.1224 83.5717 50.2379 83.5217C49.3849 83.5069 49.4021 83.7914 49.1305 84.6848C48.8804 85.507 48.6758 86.3447 48.5179 87.1933Z" fill="#2F2E41"/>
<path d="M37.1819 85.7109C36.4024 85.4989 35.5991 85.4065 34.7958 85.4365C33.9518 85.487 33.1274 85.7313 32.3774 86.1533C31.6274 86.5752 30.969 87.1651 30.446 87.8837C29.9229 88.6024 29.5473 89.4332 29.344 90.3211C29.1407 91.209 29.1145 92.1335 29.2669 93.0332C29.4616 94.0078 29.7798 94.9486 30.2124 95.829C30.8452 97.2186 31.6042 98.605 32.7756 99.4955C33.4609 100.016 34.254 100.341 35.0377 100.661L41.2076 103.176C42.1152 103.546 43.023 103.916 43.9397 104.259C48.5448 105.981 53.346 107.014 58.2097 107.329C59.6912 107.424 61.1951 107.451 62.6404 107.086C62.9834 106.999 63.3493 106.87 63.5478 106.555C63.6654 106.334 63.7348 106.086 63.7506 105.831L64.1302 102.955C64.1837 102.55 64.2351 102.123 64.098 101.742C63.9241 101.259 63.4881 100.955 63.0724 100.696C59.0162 98.1755 54.28 96.7847 50.8658 93.3247C50.062 92.5102 49.3894 91.219 48.4129 90.6657C47.3055 90.0383 46.0013 89.6802 44.8566 89.102C42.3543 87.838 39.894 86.3856 37.1819 85.7109Z" fill="#2F2E41"/>
<path opacity="0.1" d="M43.3416 89.5884C45.5224 90.3278 54.7297 95.4507 56.3078 97.2394C56.0963 97.3219 48.919 92.9694 48.7037 92.8994C46.746 92.2637 44.7775 91.6237 42.9184 90.6933C42.5444 90.5062 40.4888 89.6264 40.5819 89.1158C40.6869 88.5396 42.9544 89.4571 43.3416 89.5884Z" fill="black"/>
<path d="M56.5029 44.9183L50.6312 49.7426C50.6312 49.7426 44.4355 49.9524 44.6448 54.2381C44.8542 58.5239 47.3339 78.8155 47.3339 78.8155L47.8719 85.7974L58.077 88.944C63.591 90.6441 69.4166 90.7792 74.9929 89.3363L73.7801 82.3319C73.7801 82.3319 78.6909 50.5207 75.7325 49.1201C72.7741 47.7195 70.9251 48.1197 70.9251 48.1197L67.2169 44.6182L56.5029 44.9183Z" fill="#E5E5E5"/>
<path d="M73.8835 37.126C73.8835 43.3887 68.532 42.4415 61.9305 42.4415C55.3291 42.4415 49.9775 43.3887 49.9775 37.126C49.9775 30.8632 52.5916 19.7621 61.9305 19.7621C71.5911 19.7621 73.8835 30.8632 73.8835 37.126Z" fill="#2F2E41"/>
<path d="M68.144 39.2484C71.285 35.8494 71.285 30.3386 68.144 26.9397C65.0029 23.5407 59.9102 23.5407 56.7691 26.9397C53.6281 30.3386 53.6281 35.8494 56.7691 39.2484C59.9102 42.6473 65.0029 42.6473 68.144 39.2484Z" fill="#FFB7B7"/>
<path d="M52.5974 32.8736H55.7787L57.1821 28.6212L57.4627 32.8736H58.9833L59.8019 30.393L59.9657 32.8736H71.2637C71.2637 30.43 70.3667 28.0865 68.7699 26.3587C67.1731 24.6308 65.0074 23.6601 62.7493 23.6601H61.1119C58.8537 23.6601 56.688 24.6308 55.0912 26.3587C53.4945 28.0865 52.5974 30.43 52.5974 32.8736Z" fill="#2F2E41"/>
<path d="M70.0006 45.9188H53.9143V66.9272H70.0006V45.9188Z" fill="#1D93F3"/>
<path d="M54.8008 105.563L56.3136 109.823L72.2195 105.537L69.9868 99.2489L54.8008 105.563Z" fill="#FFB7B7"/>
<path d="M55.7005 103.942L58.6795 112.332L58.6797 112.332C59.183 113.75 59.1452 115.327 58.5746 116.715C58.0039 118.102 56.9472 119.188 55.6367 119.733L55.4762 119.8L50.5986 106.063L55.7005 103.942Z" fill="#2F2E41"/>
<path d="M86.595 84.0802C87.8728 83.7335 89.1974 83.6356 90.5069 83.791C91.5527 83.9157 92.6302 84.2306 93.3938 85.0139C94.3232 85.9672 94.6217 87.4416 94.6467 88.8271C94.6875 91.5867 93.8417 94.2759 92.2537 96.4356C91.8659 96.9818 91.4048 97.4622 90.8856 97.8607C90.3256 98.2398 89.7286 98.5511 89.1056 98.7889L75.2885 104.686C71.6535 106.238 68.0057 107.794 64.2142 108.816C64.008 108.924 63.7708 108.939 63.5547 108.857C63.3386 108.776 63.1612 108.605 63.0617 108.381C63.0587 108.375 63.0557 108.368 63.0528 108.361C61.8422 106.49 60.8266 104.479 60.0245 102.366C59.9865 102.316 59.9603 102.257 59.948 102.193C59.9357 102.13 59.9377 102.064 59.9539 102.002C59.9701 101.939 60 101.882 60.041 101.834C60.082 101.787 60.1329 101.751 60.1895 101.73L69.9625 95.6533C70.6625 95.218 71.3703 94.7765 71.9516 94.1702C72.374 93.7273 72.7198 93.2062 72.9729 92.6317C73.1754 92.1738 73.1943 91.0933 73.4531 90.7549C73.7064 90.4235 74.5731 90.3971 74.9734 90.2668C75.5379 90.0797 76.0907 89.8535 76.6284 89.5898C78.8146 88.5315 80.7613 86.9938 82.857 85.7546C84.0324 85.0274 85.2885 84.4648 86.595 84.0802Z" fill="#2F2E41"/>
<path opacity="0.1" d="M81.0546 88.618C79.3756 89.9826 77.2015 91.237 75.5374 92.6376C74.9695 93.1155 65.5018 98.8754 65.3679 99.6404C66.9204 99.9234 76.8101 92.4369 78.225 91.6898C79.64 90.9428 80.8943 89.8893 82.1372 88.8436C82.454 88.5771 83.7963 87.776 82.8871 87.4782C82.3748 87.3105 81.4328 88.3452 81.0546 88.618Z" fill="black"/>
<path d="M111.233 35.9575C114.424 35.9575 117.011 33.1583 117.011 29.7054C117.011 26.2525 114.424 23.4533 111.233 23.4533C108.042 23.4533 105.456 26.2525 105.456 29.7054C105.456 33.1583 108.042 35.9575 111.233 35.9575Z" fill="#F1F1F1"/>
<path d="M100.54 37.0773C102.779 37.0773 104.593 35.1137 104.593 32.6915C104.593 30.2693 102.779 28.3057 100.54 28.3057C98.3017 28.3057 96.4871 30.2693 96.4871 32.6915C96.4871 35.1137 98.3017 37.0773 100.54 37.0773Z" fill="#F1F1F1"/>
<path d="M26.2952 34.2163C28.09 34.2163 29.545 32.6419 29.545 30.6997C29.545 28.7575 28.09 27.1831 26.2952 27.1831C24.5004 27.1831 23.0454 28.7575 23.0454 30.6997C23.0454 32.6419 24.5004 34.2163 26.2952 34.2163Z" fill="#F1F1F1"/>
<path d="M31.6457 36.581C32.9047 36.581 33.9254 35.4766 33.9254 34.1142C33.9254 32.7517 32.9047 31.6473 31.6457 31.6473C30.3866 31.6473 29.366 32.7517 29.366 34.1142C29.366 35.4766 30.3866 36.581 31.6457 36.581Z" fill="#F1F1F1"/>
<path d="M63.1717 5.37627C64.5437 5.37627 65.6559 4.17275 65.6559 2.68813C65.6559 1.20352 64.5437 0 63.1717 0C61.7997 0 60.6875 1.20352 60.6875 2.68813C60.6875 4.17275 61.7997 5.37627 63.1717 5.37627Z" fill="#F1F1F1"/>
<path opacity="0.17" d="M48.3673 59.3242L48.5894 57.4694C48.5894 57.4694 56.8727 58.1237 55.5784 60.3246C54.2841 62.5255 51.1408 62.7256 51.1408 62.7256L48.3673 59.3242Z" fill="#2F2E41"/>
<path d="M54.6199 51.2595C55.0944 51.316 55.5514 51.4855 55.9582 51.7558C56.365 52.0261 56.7114 52.3904 56.9727 52.8228C57.2107 53.2173 57.3726 53.6597 57.4487 54.1236C57.5247 54.5876 57.5133 55.0633 57.4152 55.5223C57.317 55.9814 57.1342 56.4142 56.8776 56.7948C56.621 57.1754 56.2959 57.496 55.9219 57.7373C55.7848 57.8249 55.6417 57.9011 55.4938 57.965L50.4023 74.8173C50.2548 75.1498 50.048 75.4475 49.7938 75.6933C49.5396 75.939 49.243 76.128 48.9211 76.2493C48.5992 76.3706 48.2583 76.4218 47.918 76.4001C47.5777 76.3783 47.2447 76.284 46.9383 76.1226C46.6318 75.9611 46.3578 75.7357 46.1321 75.4593C45.9064 75.1829 45.7334 74.8609 45.6231 74.5119C45.5127 74.1629 45.4672 73.7937 45.4892 73.4256C45.5112 73.0575 45.6001 72.6978 45.751 72.367L51.1656 55.7018C51.0181 55.1504 50.9985 54.5682 51.1085 54.0066C51.2185 53.4451 51.4547 52.9215 51.7963 52.4823C52.1378 52.0431 52.5741 51.7017 53.0666 51.4884C53.5591 51.2751 54.0926 51.1965 54.6199 51.2595Z" fill="#FFB7B7"/>
<path d="M48.4433 57.6275C48.4433 57.6275 51.3607 63.0211 55.5784 60.3246L51.4909 77.2511H48.047L44.4844 76.5311L45.482 69.5378L48.4433 57.6275Z" fill="#E5E5E5"/>
<path d="M69.2741 61.314L66.8573 57.7236C66.8573 57.7236 68.0189 53.9995 72.5228 55.3613C72.5228 55.3613 75.3889 62.3034 69.2741 61.314Z" fill="#E5E5E5"/>
<path opacity="0.17" d="M69.2741 61.314L66.8573 57.7236C66.8573 57.7236 68.0189 53.9995 72.5228 55.3613C72.5228 55.3613 75.3889 62.3034 69.2741 61.314Z" fill="#2F2E41"/>
<path d="M69.914 48.7697C70.6112 49.1205 71.169 49.7304 71.4857 50.4885C71.8024 51.2466 71.8572 52.1026 71.6399 52.9007L77.0545 69.5659C77.2054 69.8967 77.2944 70.2565 77.3164 70.6246C77.3384 70.9927 77.2929 71.3619 77.1826 71.7109C77.0722 72.0599 76.8992 72.3819 76.6735 72.6583C76.4478 72.9348 76.1738 73.1602 75.8673 73.3217C75.5608 73.4831 75.2279 73.5774 74.8876 73.5992C74.5473 73.6209 74.2064 73.5696 73.8844 73.4483C73.5625 73.327 73.2659 73.138 73.0117 72.8923C72.7575 72.6465 72.5507 72.3488 72.4032 72.0162L67.3118 55.1639C67.1639 55.1 67.0207 55.0238 66.8836 54.9362C66.5096 54.6949 66.1846 54.3743 65.928 53.9937C65.6714 53.6131 65.4885 53.1803 65.3903 52.7212C65.2922 52.2622 65.2808 51.7865 65.3568 51.3226C65.4329 50.8587 65.5948 50.4162 65.8328 50.0217C66.0941 49.5893 66.4405 49.225 66.8473 48.9547C67.2541 48.6844 67.7112 48.5149 68.1856 48.4584C68.7773 48.3858 69.376 48.4937 69.914 48.7697Z" fill="#FFB7B7"/>
<path d="M66.8573 57.7236C66.8573 57.7236 70.8448 60.3417 72.5228 55.3613L78.1417 71.3706L76.4721 74.5303L76.2306 74.5521C75.2346 74.642 74.2333 74.4689 73.3127 74.0476C72.3921 73.6264 71.5798 72.9697 70.9455 72.1339C69.6517 70.4291 68.7709 68.4022 68.3828 66.2366L66.8573 57.7236Z" fill="#E5E5E5"/>
</g>
<defs>
<clipPath id="clip0_949_1373">
<rect width="120" height="120" fill="white"/>
</clipPath>
</defs>
</svg>
