<svg width="198" height="198" viewBox="0 0 198 198" fill="none" xmlns="http://www.w3.org/2000/svg">
<g filter="url(#filter0_d_1154_1343)">
<path d="M9 96C9 72.0692 9 60.1039 12.1464 50.4203C18.5054 30.8493 33.8493 15.5054 53.4203 9.14637C63.1039 6 75.0692 6 99 6C122.931 6 134.896 6 144.58 9.14637C164.151 15.5054 179.495 30.8493 185.854 50.4203C189 60.1039 189 72.0692 189 96C189 119.931 189 131.896 185.854 141.58C179.495 161.151 164.151 176.495 144.58 182.854C134.896 186 122.931 186 99 186C75.0692 186 63.1039 186 53.4203 182.854C33.8493 176.495 18.5054 161.151 12.1464 141.58C9 131.896 9 119.931 9 96Z" fill="#F4F5F9"/>
<path fill-rule="evenodd" clip-rule="evenodd" d="M99 71.4762C100.243 71.4762 101.25 72.4835 101.25 73.7262L101.25 118.274C101.25 119.517 100.243 120.524 99 120.524C97.7574 120.524 96.75 119.517 96.75 118.274V73.7262C96.75 72.4835 97.7574 71.4762 99 71.4762Z" fill="#D1D1D1"/>
<path fill-rule="evenodd" clip-rule="evenodd" d="M74.4761 96C74.4761 94.7574 75.4835 93.75 76.7261 93.75H121.274C122.517 93.75 123.524 94.7574 123.524 96C123.524 97.2427 122.517 98.25 121.274 98.25L76.7261 98.25C75.4835 98.25 74.4761 97.2427 74.4761 96Z" fill="#D1D1D1"/>
</g>
<defs>
<filter id="filter0_d_1154_1343" x="0" y="0" width="198" height="198" filterUnits="userSpaceOnUse" color-interpolation-filters="sRGB">
<feFlood flood-opacity="0" result="BackgroundImageFix"/>
<feColorMatrix in="SourceAlpha" type="matrix" values="0 0 0 0 0 0 0 0 0 0 0 0 0 0 0 0 0 0 127 0" result="hardAlpha"/>
<feOffset dy="3"/>
<feGaussianBlur stdDeviation="4.5"/>
<feComposite in2="hardAlpha" operator="out"/>
<feColorMatrix type="matrix" values="0 0 0 0 0 0 0 0 0 0 0 0 0 0 0 0 0 0 0.04 0"/>
<feBlend mode="normal" in2="BackgroundImageFix" result="effect1_dropShadow_1154_1343"/>
<feBlend mode="normal" in="SourceGraphic" in2="effect1_dropShadow_1154_1343" result="shape"/>
</filter>
</defs>
</svg>
