<svg width="146" height="147" viewBox="0 0 146 147" fill="none" xmlns="http://www.w3.org/2000/svg">
<g filter="url(#filter0_d_1154_2016)">
<path d="M9 70.5C9 53.4826 9 44.9739 11.2374 38.0878C15.7594 24.1706 26.6706 13.2594 40.5878 8.73742C47.4739 6.5 55.9826 6.5 73 6.5C90.0174 6.5 98.5262 6.5 105.412 8.73742C119.329 13.2594 130.241 24.1706 134.763 38.0878C137 44.9739 137 53.4826 137 70.5C137 87.5174 137 96.0262 134.763 102.912C130.241 116.829 119.329 127.741 105.412 132.263C98.5262 134.5 90.0174 134.5 73 134.5C55.9826 134.5 47.4739 134.5 40.5878 132.263C26.6706 127.741 15.7594 116.829 11.2374 102.912C9 96.0262 9 87.5174 9 70.5Z" fill="#F4F5F9"/>
</g>
<path fill-rule="evenodd" clip-rule="evenodd" d="M48.667 46.1667H96.6573L98.9425 48.4519V96.4422H50.9522L48.667 94.157V46.1667ZM53.2375 50.7372V74.0973L61.3398 65.9951L77.9597 82.6152L88.3472 72.2277L94.372 78.2522V50.7372H53.2375ZM94.372 84.7161L88.3472 78.6913L77.9597 89.0789L61.3398 72.4587L53.2375 80.561V91.8717H94.372V84.7161ZM82.1149 59.0472C79.9347 59.0472 78.1675 60.8145 78.1675 62.9945C78.1675 65.1745 79.9347 66.9418 82.1149 66.9418C84.2947 66.9418 86.0619 65.1745 86.0619 62.9945C86.0619 60.8145 84.2947 59.0472 82.1149 59.0472ZM73.597 62.9945C73.597 58.2902 77.4106 54.4767 82.1149 54.4767C86.8191 54.4767 90.6324 58.2902 90.6324 62.9945C90.6324 67.6986 86.8191 71.5123 82.1149 71.5123C77.4106 71.5123 73.597 67.6986 73.597 62.9945Z" fill="#D1D1D1"/>
<defs>
<filter id="filter0_d_1154_2016" x="0" y="0.5" width="146" height="146" filterUnits="userSpaceOnUse" color-interpolation-filters="sRGB">
<feFlood flood-opacity="0" result="BackgroundImageFix"/>
<feColorMatrix in="SourceAlpha" type="matrix" values="0 0 0 0 0 0 0 0 0 0 0 0 0 0 0 0 0 0 127 0" result="hardAlpha"/>
<feOffset dy="3"/>
<feGaussianBlur stdDeviation="4.5"/>
<feComposite in2="hardAlpha" operator="out"/>
<feColorMatrix type="matrix" values="0 0 0 0 0 0 0 0 0 0 0 0 0 0 0 0 0 0 0.04 0"/>
<feBlend mode="normal" in2="BackgroundImageFix" result="effect1_dropShadow_1154_2016"/>
<feBlend mode="normal" in="SourceGraphic" in2="effect1_dropShadow_1154_2016" result="shape"/>
</filter>
</defs>
</svg>
