<svg width="198" height="198" viewBox="0 0 198 198" fill="none" xmlns="http://www.w3.org/2000/svg">
<g filter="url(#filter0_d_1154_1365)">
<path d="M9 96C9 72.0692 9 60.1039 12.1464 50.4203C18.5054 30.8493 33.8493 15.5054 53.4203 9.14637C63.1039 6 75.0692 6 99 6C122.931 6 134.896 6 144.58 9.14637C164.151 15.5054 179.495 30.8493 185.854 50.4203C189 60.1039 189 72.0692 189 96C189 119.931 189 131.896 185.854 141.58C179.495 161.151 164.151 176.495 144.58 182.854C134.896 186 122.931 186 99 186C75.0692 186 63.1039 186 53.4203 182.854C33.8493 176.495 18.5054 161.151 12.1464 141.58C9 131.896 9 119.931 9 96Z" fill="#F4F5F9"/>
<path fill-rule="evenodd" clip-rule="evenodd" d="M102.238 58.8308C108.006 54.9879 108.437 62.5969 114.1 57.8397V65.6022C108.703 70.2892 107.536 62.7184 102.238 66.5613V58.8308ZM99.6452 80.3792H100.653C100.839 80.3792 100.985 80.5262 100.985 80.6989V84.4331H104.519C104.704 84.4331 104.85 84.5802 104.85 84.7528V85.7247C104.85 85.9038 104.698 86.0444 104.519 86.0444H99.3071V80.6925C99.3071 80.5262 99.4596 80.3792 99.6452 80.3792ZM100.786 76.0056C105.328 76.0056 109.008 79.5543 109.008 83.9343C109.008 88.3144 105.328 91.8631 100.786 91.8631C96.2438 91.8631 92.5638 88.3144 92.5638 83.9343C92.5638 79.5607 96.2438 76.0056 100.786 76.0056ZM101.913 102.586V128.336H110.035V102.586H101.913ZM99.6585 128.336V102.586H91.5361V128.336H99.6585ZM129.41 135.267C132.339 135.267 134.714 132.977 134.714 130.152V94.9899C134.714 92.1648 132.339 89.8745 129.41 89.8745H116.838V80.2776C116.838 79.4083 116.38 78.5984 115.623 78.1276L101.422 69.3044V58.6901H101.369C101.694 58.5111 101.906 58.1658 101.906 57.7757C101.906 57.1875 101.416 56.7143 100.806 56.7143C100.196 56.7143 99.7049 57.1875 99.7049 57.7757C99.7049 58.1658 99.9237 58.5047 100.242 58.6901H100.189V69.2853L85.9556 78.1276C85.1977 78.5984 84.7397 79.4083 84.7397 80.2777V89.8745H71.651C69.0034 89.8745 66.8571 91.9443 66.8571 94.4975V130.171C66.8571 132.996 69.232 135.286 72.1616 135.286C91.247 135.283 110.324 135.27 129.41 135.267ZM74.1441 102.586H83.0887V105.943H74.1441V102.586ZM118.476 102.586H127.421V105.943H118.476V102.586ZM74.1441 109.997H83.0887V113.354H74.1441V109.997ZM118.476 109.997H127.421V113.354H118.476V109.997ZM74.1441 117.408H83.0887V120.765H74.1441V117.408ZM118.476 117.408H127.421V120.765H118.476V117.408ZM74.1441 124.819H83.0887V128.176H74.1441V124.819ZM118.476 124.819H127.421V128.176H118.476V124.819Z" fill="#D1D1D1"/>
</g>
<defs>
<filter id="filter0_d_1154_1365" x="0" y="0" width="198" height="198" filterUnits="userSpaceOnUse" color-interpolation-filters="sRGB">
<feFlood flood-opacity="0" result="BackgroundImageFix"/>
<feColorMatrix in="SourceAlpha" type="matrix" values="0 0 0 0 0 0 0 0 0 0 0 0 0 0 0 0 0 0 127 0" result="hardAlpha"/>
<feOffset dy="3"/>
<feGaussianBlur stdDeviation="4.5"/>
<feComposite in2="hardAlpha" operator="out"/>
<feColorMatrix type="matrix" values="0 0 0 0 0 0 0 0 0 0 0 0 0 0 0 0 0 0 0.04 0"/>
<feBlend mode="normal" in2="BackgroundImageFix" result="effect1_dropShadow_1154_1365"/>
<feBlend mode="normal" in="SourceGraphic" in2="effect1_dropShadow_1154_1365" result="shape"/>
</filter>
</defs>
</svg>
