<svg width="168" height="48" viewBox="0 0 168 48" fill="none" xmlns="http://www.w3.org/2000/svg">
<rect y="13.5966" width="168" height="34" rx="8" fill="#3D3D3D"/>
<path d="M18.8496 25.4794C18.8496 27.038 20.5859 28.6103 23.2246 28.9521L22.623 30.1826C20.5244 29.8681 18.8564 28.8359 18.0566 27.4345C17.2432 28.8359 15.582 29.8681 13.5039 30.1826L12.9023 28.9521C15.5137 28.6103 17.25 27.038 17.25 25.4794V24.8505H18.8496V25.4794ZM23.6758 31.249V32.5068H18.7676V36.8134H17.2637V32.5068H12.4102V31.249H23.6758ZM30.6211 25.165V28.829H26.5059V30.2099C28.6045 30.2031 30.04 30.1347 31.7285 29.8408L31.8926 31.0576C30.0469 31.372 28.4473 31.454 26 31.454H24.9883V27.6533H29.1309V26.3954H24.9746V25.165H30.6211ZM34.2578 24.4677V27.4892H35.9941V28.747H34.2578V31.9736H32.7402V24.4677H34.2578ZM34.2578 32.5615V36.7997H32.7402V33.7783H26.0273V32.5615H34.2578ZM43.9648 29.581V30.8115H41.4629V32.9716C42.543 32.9238 43.623 32.8486 44.6484 32.7392L44.7715 33.8603C42.0508 34.2704 39.1934 34.2978 36.8555 34.2978L36.6641 33.04C37.6826 33.0468 38.7969 33.0468 39.9453 33.0126V30.8115H37.5254V25.5888H43.9102V26.7919H39.0293V29.581H43.9648ZM46.9043 24.454V36.8271H45.3867V24.454H46.9043ZM55.0527 25.4931V26.4775H57.541V24.4677H59.0586V33.4638H57.541V30.3466H55.0527V31.413H49.2422V25.4931H55.0527ZM50.7598 26.6962V30.2236H53.5488V26.6962H50.7598ZM59.332 35.3369V36.5673H50.9102V32.6298H52.4551V35.3369H59.332ZM55.0527 29.1298H57.541V27.7216H55.0527V29.1298ZM73.8105 24.454V29.2802H75.6426V30.5517H73.8105V36.7861H72.293V24.454H73.8105ZM70.543 25.7392C70.543 29.3759 69.0391 32.5615 64.9238 34.5849L64.0625 33.4091C67.0703 31.912 68.6973 29.8066 69.0117 26.997H64.7324V25.7392H70.543ZM86.5254 24.454V31.0849H84.9941V24.454H86.5254ZM79.8535 31.6591V32.9306H85.0078V31.6591H86.5254V36.663H78.3496V31.6591H79.8535ZM79.8535 35.4326H85.0078V34.1201H79.8535V35.4326ZM79.7852 25.0009C81.6855 24.9872 83.1074 26.1767 83.1074 27.8994C83.1074 29.581 81.6855 30.7704 79.7852 30.7704C77.8711 30.7704 76.4492 29.581 76.4492 27.8994C76.4492 26.1767 77.8711 24.9872 79.7852 25.0009ZM79.7852 26.2724C78.7051 26.2724 77.9258 26.9013 77.9395 27.8994C77.9258 28.8837 78.7051 29.5126 79.7852 29.5263C80.8516 29.5126 81.6172 28.8837 81.6172 27.8994C81.6172 26.9013 80.8516 26.2724 79.7852 26.2724ZM98.0781 24.4267V27.2158H99.8145V28.4462H98.0781V31.1669H96.5605V24.4267H98.0781ZM98.0781 31.7138V34.6943H91.5156V35.5693H98.4609V36.704H90.0117V33.6415H96.5605V32.8212H89.998V31.7138H98.0781ZM95.6719 25.4521V26.6142H88.3438V25.4521H91.2559V24.3583H92.7734V25.4521H95.6719ZM92.0078 26.997C93.8398 27.0107 95.0156 27.79 95.0293 29.0204C95.0156 30.2919 93.8398 31.0439 92.0078 31.0439C90.1758 31.0439 88.9727 30.2919 88.9727 29.0204C88.9727 27.79 90.1758 27.0107 92.0078 26.997ZM92.0078 28.0908C91.0508 28.0908 90.4492 28.4326 90.4492 29.0204C90.4492 29.622 91.0508 29.9501 92.0078 29.9501C92.9648 29.9501 93.5801 29.622 93.5801 29.0204C93.5801 28.4326 92.9648 28.0908 92.0078 28.0908ZM110.191 25.4794C110.191 27.038 111.928 28.6103 114.566 28.9521L113.965 30.1826C111.866 29.8681 110.198 28.8359 109.398 27.4345C108.585 28.8359 106.924 29.8681 104.846 30.1826L104.244 28.9521C106.855 28.6103 108.592 27.038 108.592 25.4794V24.8505H110.191V25.4794ZM115.018 31.249V32.5068H110.109V36.8134H108.605V32.5068H103.752V31.249H115.018ZM123.562 32.4931C123.562 33.5185 124.034 34.5986 125.094 35.2685C126.167 34.5507 126.666 33.4296 126.68 32.4931V31.9872H128.17V32.4931C128.156 33.7919 128.922 34.9951 130.549 35.5146L129.811 36.622C128.607 36.2187 127.808 35.4326 127.377 34.4482C126.98 35.4189 126.249 36.287 125.135 36.7314C123.959 36.3076 123.221 35.4736 122.838 34.4892C122.394 35.4394 121.607 36.2119 120.459 36.622L119.707 35.5146C121.307 34.954 122.072 33.6962 122.086 32.4931V31.9872H123.562V32.4931ZM129.469 24.4677V31.4677H127.938V24.4677H129.469ZM122.729 25.124C124.629 25.124 126.051 26.3271 126.051 28.0634C126.051 29.7861 124.629 30.9892 122.729 30.9892C120.814 30.9892 119.393 29.7861 119.393 28.0634C119.393 26.3271 120.814 25.124 122.729 25.124ZM122.729 26.4091C121.648 26.4091 120.869 27.0517 120.883 28.0634C120.869 29.0751 121.648 29.7314 122.729 29.7314C123.795 29.7314 124.561 29.0751 124.561 28.0634C124.561 27.0517 123.795 26.4091 122.729 26.4091ZM134.65 25.3564C136.325 25.3564 137.562 26.7509 137.781 29.0068H140.133V24.454H141.637V36.8271H140.133V30.2372H137.795C137.631 32.623 136.373 34.0927 134.65 34.0927C132.791 34.0927 131.479 32.4111 131.479 29.7177C131.479 27.0517 132.791 25.3564 134.65 25.3564ZM134.65 26.7236C133.625 26.7236 132.928 27.831 132.941 29.7177C132.928 31.6181 133.625 32.7255 134.65 32.7255C135.676 32.7255 136.359 31.6181 136.373 29.7177C136.359 27.831 135.676 26.7236 134.65 26.7236ZM154.666 34.0654V35.3095H143.373V34.0654H145.984V30.9345C145 30.374 144.405 29.4921 144.412 28.3915C144.398 26.4228 146.34 25.124 148.992 25.124C151.658 25.124 153.6 26.4228 153.6 28.3915C153.6 29.4716 153.025 30.3398 152.068 30.9072V34.0654H154.666ZM148.992 26.3271C147.146 26.3271 145.889 27.1064 145.902 28.3915C145.889 29.663 147.146 30.456 148.992 30.456C150.838 30.456 152.109 29.663 152.109 28.3915C152.109 27.1064 150.838 26.3271 148.992 26.3271ZM147.488 34.0654H150.523V31.4814C150.052 31.5908 149.539 31.6454 148.992 31.6454C148.459 31.6454 147.953 31.5908 147.488 31.4951V34.0654Z" fill="white"/>
<path d="M26 0.403381L43 15.4034H26V0.403381Z" fill="#3D3D3D"/>
</svg>
