<svg width="164" height="49" viewBox="0 0 164 49" fill="none" xmlns="http://www.w3.org/2000/svg">
<path d="M17.5047 3.71507C17.7161 2.12952 19.6109 1.4214 20.8104 2.47973L35 15H16L17.5047 3.71507Z" fill="#333333"/>
<rect y="15" width="164" height="34" rx="8" fill="#333333"/>
<path d="M22.0898 25.8574V30.6836H23.9219V31.9551H22.0898V38.1895H20.5723V25.8574H22.0898ZM18.8223 27.1426C18.8223 30.7793 17.3184 33.9648 13.2031 35.9883L12.3418 34.8125C15.3496 33.3154 16.9766 31.21 17.291 28.4004H13.0117V27.1426H18.8223ZM34.8047 25.8574V32.4883H33.2734V25.8574H34.8047ZM28.1328 33.0625V34.334H33.2871V33.0625H34.8047V38.0664H26.6289V33.0625H28.1328ZM28.1328 36.8359H33.2871V35.5234H28.1328V36.8359ZM28.0645 26.4043C29.9648 26.3906 31.3867 27.5801 31.3867 29.3027C31.3867 30.9844 29.9648 32.1738 28.0645 32.1738C26.1504 32.1738 24.7285 30.9844 24.7285 29.3027C24.7285 27.5801 26.1504 26.3906 28.0645 26.4043ZM28.0645 27.6758C26.9844 27.6758 26.2051 28.3047 26.2188 29.3027C26.2051 30.2871 26.9844 30.916 28.0645 30.9297C29.1309 30.916 29.8965 30.2871 29.8965 29.3027C29.8965 28.3047 29.1309 27.6758 28.0645 27.6758ZM46.3711 26.8828C46.3711 28.4414 48.1074 30.0137 50.7461 30.3555L50.1445 31.5859C48.0459 31.2715 46.3779 30.2393 45.5781 28.8379C44.7646 30.2393 43.1035 31.2715 41.0254 31.5859L40.4238 30.3555C43.0352 30.0137 44.7715 28.4414 44.7715 26.8828V26.2539H46.3711V26.8828ZM51.1973 32.6523V33.9102H46.2891V38.2168H44.7852V33.9102H39.9316V32.6523H51.1973ZM58.1426 26.5684V30.2324H54.0273V31.6133C56.126 31.6064 57.5615 31.5381 59.25 31.2441L59.4141 32.4609C57.5684 32.7754 55.9688 32.8574 53.5215 32.8574H52.5098V29.0566H56.6523V27.7988H52.4961V26.5684H58.1426ZM61.7793 25.8711V28.8926H63.5156V30.1504H61.7793V33.377H60.2617V25.8711H61.7793ZM61.7793 33.9648V38.2031H60.2617V35.1816H53.5488V33.9648H61.7793ZM69.75 26.0488C72.5664 26.0488 74.1934 26.8008 74.207 28.168C74.1934 29.5488 72.5664 30.2871 69.75 30.3008C66.9336 30.2871 65.293 29.5488 65.293 28.168C65.293 26.8008 66.9336 26.0488 69.75 26.0488ZM69.75 27.1699C67.8633 27.1699 66.8789 27.5254 66.8926 28.168C66.8789 28.8516 67.8633 29.166 69.75 29.166C71.6641 29.166 72.6348 28.8516 72.6348 28.168C72.6348 27.5254 71.6641 27.1699 69.75 27.1699ZM75.3965 30.957V32.1738H64.1309V30.957H75.3965ZM73.9883 33.0078V36.0293H66.9609V36.9453H74.3301V38.1074H65.4707V34.9492H72.498V34.1289H65.457V33.0078H73.9883ZM90.1895 25.8574V38.2168H88.7402V31.9141H87.3457V37.5879H85.9512V26.0898H87.3457V30.6973H88.7402V25.8574H90.1895ZM84.5566 27.3203V28.5508H81.4668V34.0469C82.8135 34.0332 83.9209 33.9648 85.1719 33.7324L85.2812 34.9766C83.791 35.2773 82.4922 35.3184 80.7695 35.332H79.9355V27.3203H84.5566ZM101.975 25.8574V38.2168H100.443V25.8574H101.975ZM98.2832 27.1699C98.2832 30.8477 96.8613 33.9785 92.5273 36.0293L91.7344 34.8125C94.9678 33.2744 96.4717 31.1826 96.7383 28.373H92.3633V27.1699H98.2832ZM115.018 31.5312V32.7617H110.123V33.7871C112.338 33.9375 113.637 34.7031 113.65 35.9883C113.637 37.4102 112.037 38.2031 109.371 38.2031C106.678 38.2031 105.064 37.4102 105.064 35.9883C105.064 34.7031 106.377 33.9307 108.619 33.7871V32.7617H103.752V31.5312H115.018ZM109.371 34.9355C107.566 34.9492 106.596 35.3047 106.609 35.9883C106.596 36.6719 107.566 37.041 109.371 37.041C111.135 37.041 112.119 36.6719 112.133 35.9883C112.119 35.3047 111.135 34.9492 109.371 34.9355ZM114.006 26.4043V27.6211H110.451C110.69 28.6396 112.167 29.5557 114.484 29.7676L113.951 30.9707C111.709 30.7451 110.041 29.8496 109.371 28.5918C108.701 29.8428 107.061 30.7451 104.818 30.9707L104.299 29.7676C106.568 29.5557 108.045 28.626 108.305 27.6211H104.777V26.4043H114.006ZM126.133 25.8574V38.2305H124.602V25.8574H126.133ZM119.475 26.7598C121.334 26.7598 122.688 28.4551 122.701 31.1211C122.688 33.8145 121.334 35.4961 119.475 35.4961C117.602 35.4961 116.248 33.8145 116.248 31.1211C116.248 28.4551 117.602 26.7598 119.475 26.7598ZM119.475 28.127C118.422 28.127 117.711 29.2344 117.711 31.1211C117.711 33.0215 118.422 34.1289 119.475 34.1289C120.514 34.1289 121.225 33.0215 121.225 31.1211C121.225 29.2344 120.514 28.127 119.475 28.127ZM138.615 25.8574V38.2168H137.152V25.8574H138.615ZM136.072 26.0762V37.6152H134.623V31.7363H133.447C133.304 34.1426 132.271 35.6328 130.74 35.6191C129.127 35.6328 128.074 33.9238 128.074 31.2031C128.074 28.4824 129.127 26.8008 130.74 26.8008C132.237 26.8008 133.256 28.1953 133.434 30.5059H134.623V26.0762H136.072ZM130.74 28.2363C129.961 28.2227 129.469 29.2754 129.482 31.2031C129.469 33.1309 129.961 34.1836 130.74 34.1699C131.561 34.1836 132.053 33.1309 132.053 31.2031C132.053 29.2754 131.561 28.2227 130.74 28.2363ZM151.344 35.4688V36.7129H140.051V35.4688H142.662V32.3379C141.678 31.7773 141.083 30.8955 141.09 29.7949C141.076 27.8262 143.018 26.5273 145.67 26.5273C148.336 26.5273 150.277 27.8262 150.277 29.7949C150.277 30.875 149.703 31.7432 148.746 32.3105V35.4688H151.344ZM145.67 27.7305C143.824 27.7305 142.566 28.5098 142.58 29.7949C142.566 31.0664 143.824 31.8594 145.67 31.8594C147.516 31.8594 148.787 31.0664 148.787 29.7949C148.787 28.5098 147.516 27.7305 145.67 27.7305ZM144.166 35.4688H147.201V32.8848C146.729 32.9941 146.217 33.0488 145.67 33.0488C145.137 33.0488 144.631 32.9941 144.166 32.8984V35.4688Z" fill="white"/>
</svg>
