<svg width="32" height="32" viewBox="0 0 32 32" fill="none" xmlns="http://www.w3.org/2000/svg">
<path d="M5.33301 7.99996C5.33301 7.26358 5.92996 6.66663 6.66634 6.66663L25.333 6.66663C26.0694 6.66663 26.6663 7.26358 26.6663 7.99996C26.6663 8.73634 26.0694 9.33329 25.333 9.33329L6.66634 9.33329C5.92996 9.33329 5.33301 8.73634 5.33301 7.99996Z" fill="black"/>
<path d="M5.33301 16C5.33301 15.2636 5.92996 14.6666 6.66634 14.6666L25.333 14.6666C26.0694 14.6666 26.6663 15.2636 26.6663 16C26.6663 16.7363 26.0694 17.3333 25.333 17.3333L6.66634 17.3333C5.92996 17.3333 5.33301 16.7363 5.33301 16Z" fill="black"/>
<path d="M5.33301 24C5.33301 23.2636 5.92996 22.6666 6.66634 22.6666L25.333 22.6666C26.0694 22.6666 26.6663 23.2636 26.6663 24C26.6663 24.7363 26.0694 25.3333 25.333 25.3333L6.66634 25.3333C5.92996 25.3333 5.33301 24.7363 5.33301 24Z" fill="black"/>
</svg>
