<svg width="20" height="20" viewBox="0 0 20 20" fill="none" xmlns="http://www.w3.org/2000/svg">
<path fill-rule="evenodd" clip-rule="evenodd" d="M10 1.5C5.30558 1.5 1.5 5.30558 1.5 10C1.5 14.6944 5.30558 18.5 10 18.5C14.6944 18.5 18.5 14.6944 18.5 10C18.5 5.30558 14.6944 1.5 10 1.5ZM0 10C0 4.47715 4.47715 0 10 0C15.5228 0 20 4.47715 20 10C20 15.5228 15.5228 20 10 20C4.47715 20 0 15.5228 0 10Z" fill="#1D93F3"/>
<path fill-rule="evenodd" clip-rule="evenodd" d="M19.25 10C19.25 15.1086 15.1086 19.25 10 19.25C4.89137 19.25 0.75 15.1086 0.75 10C0.75 4.89137 4.89137 0.75 10 0.75C15.1086 0.75 19.25 4.89137 19.25 10ZM16.0872 7.14308C16.3872 6.85742 16.3988 6.38268 16.1131 6.08274C15.8274 5.78279 15.3527 5.77121 15.0528 6.05687L8.42935 12.3649L4.94656 9.05623C4.64625 8.77094 4.17153 8.78311 3.88624 9.08342C3.60096 9.38372 3.61313 9.85844 3.91343 10.1437L7.91343 13.9437C8.20317 14.219 8.65784 14.2187 8.94724 13.9431L16.0872 7.14308Z" fill="#1D93F3"/>
</svg>
