<svg width="14" height="14" viewBox="0 0 14 14" fill="none" xmlns="http://www.w3.org/2000/svg">
<path fill-rule="evenodd" clip-rule="evenodd" d="M7 14C10.866 14 14 10.866 14 7C14 3.13401 10.866 0 7 0C3.13401 0 0 3.13401 0 7C0 10.866 3.13401 14 7 14ZM4.31307 4.31297C4.50833 4.11771 4.82491 4.11771 5.02018 4.31297L6.99996 6.29275L8.97974 4.31297C9.175 4.11771 9.49158 4.11771 9.68684 4.31297C9.8821 4.50823 9.8821 4.82481 9.68684 5.02007L7.70706 6.99985L9.68684 8.97963C9.8821 9.1749 9.8821 9.49148 9.68684 9.68674C9.49158 9.882 9.175 9.882 8.97974 9.68674L6.99996 7.70696L5.02018 9.68674C4.82491 9.882 4.50833 9.882 4.31307 9.68674C4.11781 9.49148 4.11781 9.1749 4.31307 8.97963L6.29285 6.99985L4.31307 5.02007C4.11781 4.82481 4.11781 4.50823 4.31307 4.31297Z" fill="#AAAAAA"/>
</svg>
