<svg width="36" height="36" viewBox="0 0 36 36" fill="none" xmlns="http://www.w3.org/2000/svg">
<path fill-rule="evenodd" clip-rule="evenodd" d="M8.45406 27.5459C13.7261 32.818 22.2739 32.818 27.5459 27.5459C32.818 22.2739 32.818 13.7261 27.5459 8.45406C22.2739 3.18198 13.7261 3.18198 8.45406 8.45406C3.18198 13.7261 3.18198 22.2739 8.45406 27.5459ZM10.5754 16.5C9.74695 16.5 9.07538 17.1716 9.07538 18C9.07538 18.8284 9.74695 19.5 10.5754 19.5H16.5L16.5 25.4246C16.5 26.253 17.1716 26.9246 18 26.9246C18.8284 26.9246 19.5 26.253 19.5 25.4246V19.5H25.4246C26.253 19.5 26.9246 18.8284 26.9246 18C26.9246 17.1716 26.253 16.5 25.4246 16.5H19.5L19.5 10.5754C19.5 9.74695 18.8284 9.07538 18 9.07538C17.1716 9.07538 16.5 9.74695 16.5 10.5754L16.5 16.5H10.5754Z" fill="#D1D1D1"/>
</svg>
