<svg width="20" height="20" viewBox="0 0 20 20" fill="none" xmlns="http://www.w3.org/2000/svg">
<path fill-rule="evenodd" clip-rule="evenodd" d="M10 1.5C5.30558 1.5 1.5 5.30558 1.5 10C1.5 14.6944 5.30558 18.5 10 18.5C14.6944 18.5 18.5 14.6944 18.5 10C18.5 5.30558 14.6944 1.5 10 1.5ZM0 10C0 4.47715 4.47715 0 10 0C15.5228 0 20 4.47715 20 10C20 15.5228 15.5228 20 10 20C4.47715 20 0 15.5228 0 10Z" fill="#AAAAAA"/>
<path fill-rule="evenodd" clip-rule="evenodd" d="M16.1131 6.08274C16.3988 6.38268 16.3872 6.85742 16.0872 7.14308L8.94724 13.9431C8.65785 14.2187 8.20318 14.219 7.91344 13.9437L3.91344 10.1437C3.61314 9.85844 3.60096 9.38372 3.88625 9.08342C4.17154 8.78311 4.64626 8.77094 4.94656 9.05623L8.42936 12.3649L15.0528 6.05687C15.3527 5.77121 15.8274 5.78279 16.1131 6.08274Z" fill="#AAAAAA"/>
</svg>
