<svg width="1440" height="392" viewBox="0 0 1440 392" fill="none" xmlns="http://www.w3.org/2000/svg">
<path fill-rule="evenodd" clip-rule="evenodd" d="M644.5 599C716.291 599 782.183 573.741 833.772 531.625C877.315 592.4 948.533 632 1029 632C1099.15 632 1162.27 601.903 1206.15 553.918C1241.92 571.269 1282.08 581 1324.5 581C1474.45 581 1596 459.445 1596 309.5C1596 159.555 1474.45 38 1324.5 38C1229.07 38 1145.14 87.2348 1096.73 161.689C1075.25 155.383 1052.52 152 1029 152C989.227 152 951.713 161.675 918.684 178.8C872.263 73.5032 766.965 0 644.5 0C535.525 0 440.143 58.2018 387.744 145.217C333.757 92.4917 259.923 60 178.5 60C13.0907 60 -121 194.091 -121 359.5C-121 524.909 13.0907 659 178.5 659C287.475 659 382.857 600.798 435.256 513.783C489.243 566.508 563.077 599 644.5 599Z" fill="#F2F7FF"/>
</svg>
