<svg width="1440" height="612" viewBox="0 0 1440 612" fill="none" xmlns="http://www.w3.org/2000/svg">
<path fill-rule="evenodd" clip-rule="evenodd" d="M1367.5 461C1494.8 461 1598 357.802 1598 230.5C1598 103.198 1494.8 0 1367.5 0C1247.84 0 1149.47 91.1858 1138.1 207.863C1097.57 172.453 1044.54 151 986.5 151C859.198 151 756 254.198 756 381.5C756 508.802 859.198 612 986.5 612C1106.16 612 1204.53 520.814 1215.9 404.137C1256.43 439.547 1309.46 461 1367.5 461ZM401.5 481C528.802 481 632 377.802 632 250.5C632 123.198 528.802 20 401.5 20C287.763 20 193.266 102.378 174.419 210.724C137.82 186.263 93.8256 172 46.5 172C-80.8016 172 -184 275.198 -184 402.5C-184 529.802 -80.8016 633 46.5 633C160.237 633 254.734 550.622 273.581 442.276C310.18 466.737 354.174 481 401.5 481Z" fill="#DAE8FF"/>
<path fill-rule="evenodd" clip-rule="evenodd" d="M1367.5 461C1494.8 461 1598 357.802 1598 230.5C1598 103.198 1494.8 0 1367.5 0C1247.84 0 1149.47 91.1858 1138.1 207.863C1097.57 172.453 1044.54 151 986.5 151C859.198 151 756 254.198 756 381.5C756 508.802 859.198 612 986.5 612C1106.16 612 1204.53 520.814 1215.9 404.137C1256.43 439.547 1309.46 461 1367.5 461ZM401.5 481C528.802 481 632 377.802 632 250.5C632 123.198 528.802 20 401.5 20C287.763 20 193.266 102.378 174.419 210.724C137.82 186.263 93.8256 172 46.5 172C-80.8016 172 -184 275.198 -184 402.5C-184 529.802 -80.8016 633 46.5 633C160.237 633 254.734 550.622 273.581 442.276C310.18 466.737 354.174 481 401.5 481Z" fill="url(#paint0_linear_440_852)" fill-opacity="0.2"/>
<defs>
<linearGradient id="paint0_linear_440_852" x1="697" y1="22" x2="697" y2="642" gradientUnits="userSpaceOnUse">
<stop stop-color="white"/>
<stop offset="1" stop-color="#00C2FF"/>
</linearGradient>
</defs>
</svg>
