<svg width="18" height="24" viewBox="0 0 18 24" fill="none" xmlns="http://www.w3.org/2000/svg">
<path d="M9.26719 6.04454C10.2656 6.04454 11.5172 5.36954 12.2625 4.46954C12.9375 3.65391 13.4297 2.51485 13.4297 1.37579C13.4297 1.2211 13.4156 1.06641 13.3875 0.93985C12.2766 0.982037 10.9406 1.68516 10.1391 2.62735C9.50625 3.34454 8.92969 4.46954 8.92969 5.62266C8.92969 5.79141 8.95781 5.96016 8.97188 6.01641C9.04219 6.03047 9.15469 6.04454 9.26719 6.04454ZM5.75156 23.0602C7.11562 23.0602 7.72031 22.1461 9.42187 22.1461C11.1516 22.1461 11.5312 23.032 13.05 23.032C14.5406 23.032 15.5391 21.6539 16.4812 20.3039C17.5359 18.757 17.9719 17.2383 18 17.168C17.9016 17.1398 15.0469 15.9727 15.0469 12.6961C15.0469 9.85547 17.2969 8.57579 17.4234 8.47735C15.9328 6.33985 13.6687 6.2836 13.05 6.2836C11.3766 6.2836 10.0125 7.2961 9.15469 7.2961C8.22656 7.2961 7.00312 6.33985 5.55469 6.33985C2.79844 6.33985 0 8.61797 0 12.9211C0 15.593 1.04062 18.4195 2.32031 20.2477C3.41719 21.7945 4.37344 23.0602 5.75156 23.0602Z" fill="black"/>
</svg>
