<svg xmlns="http://www.w3.org/2000/svg" width="1440" height="590" viewBox="0 0 1440 590" fill="none">
  <path fill-rule="evenodd" clip-rule="evenodd" d="M1126.28 454.452C1108.72 458.731 1090.38 461 1071.5 461C944.198 461 841 357.802 841 230.5C841 103.198 944.198 0 1071.5 0C1176.25 0 1264.68 69.8708 1292.72 165.548C1310.28 161.269 1328.62 159 1347.5 159C1474.8 159 1578 262.198 1578 389.5C1578 516.802 1474.8 620 1347.5 620C1242.75 620 1154.32 550.129 1126.28 454.452ZM203.38 500.377C162.236 538.615 107.099 562 46.5 562C-80.8016 562 -184 458.802 -184 331.5C-184 204.198 -80.8016 101 46.5 101C130.729 101 204.405 146.178 244.62 213.623C285.764 175.385 340.901 152 401.5 152C528.802 152 632 255.198 632 382.5C632 509.802 528.802 613 401.5 613C317.271 613 243.595 567.822 203.38 500.377Z" fill="#DAE8FF"/>
  <path fill-rule="evenodd" clip-rule="evenodd" d="M1126.28 454.452C1108.72 458.731 1090.38 461 1071.5 461C944.198 461 841 357.802 841 230.5C841 103.198 944.198 0 1071.5 0C1176.25 0 1264.68 69.8708 1292.72 165.548C1310.28 161.269 1328.62 159 1347.5 159C1474.8 159 1578 262.198 1578 389.5C1578 516.802 1474.8 620 1347.5 620C1242.75 620 1154.32 550.129 1126.28 454.452ZM203.38 500.377C162.236 538.615 107.099 562 46.5 562C-80.8016 562 -184 458.802 -184 331.5C-184 204.198 -80.8016 101 46.5 101C130.729 101 204.405 146.178 244.62 213.623C285.764 175.385 340.901 152 401.5 152C528.802 152 632 255.198 632 382.5C632 509.802 528.802 613 401.5 613C317.271 613 243.595 567.822 203.38 500.377Z" fill="url(#paint0_linear_337_431)" fill-opacity="0.2"/>
  <defs>
    <linearGradient id="paint0_linear_337_431" x1="697" y1="0" x2="697" y2="620" gradientUnits="userSpaceOnUse">
      <stop stop-color="white"/>
      <stop offset="1" stop-color="#00C2FF"/>
    </linearGradient>
  </defs>
</svg>