<svg xmlns="http://www.w3.org/2000/svg" width="1440" height="377" viewBox="0 0 1440 377" fill="none">
  <path fill-rule="evenodd" clip-rule="evenodd" d="M631.5 599C702.287 599 767.338 574.442 818.599 533.382C862.126 594.294 933.426 634 1014 634C1070.71 634 1122.83 614.328 1163.91 581.435C1208.88 614.48 1264.41 634 1324.5 634C1474.45 634 1596 512.445 1596 362.5C1596 212.555 1474.45 91 1324.5 91C1244.69 91 1172.93 125.433 1123.26 180.253C1090.48 163.469 1053.35 154 1014 154C975.167 154 938.488 163.223 906.034 179.598C859.795 73.8746 754.275 0 631.5 0C517.897 0 419.067 63.2497 368.303 156.455C323.347 129.498 270.733 114 214.5 114C49.0907 114 -85 248.091 -85 413.5C-85 578.909 49.0907 713 214.5 713C328.103 713 426.933 649.75 477.697 556.545C522.653 583.502 575.266 599 631.5 599Z" fill="#F2F7FF"/>
</svg>