<svg width="32" height="32" viewBox="0 0 32 32" fill="none" xmlns="http://www.w3.org/2000/svg">
<g clip-path="url(#clip0_350_304)">
<path d="M0 12.96C0 8.32853 0 6.01279 0.929875 4.25656C1.68028 2.8393 2.8393 1.68028 4.25656 0.929875C6.01279 0 8.32853 0 12.96 0H19.04C23.6715 0 25.9872 0 27.7434 0.929875C29.1607 1.68028 30.3197 2.8393 31.0701 4.25656C32 6.01279 32 8.32853 32 12.96V19.04C32 23.6715 32 25.9872 31.0701 27.7434C30.3197 29.1607 29.1607 30.3197 27.7434 31.0701C25.9872 32 23.6715 32 19.04 32H12.96C8.32853 32 6.01279 32 4.25656 31.0701C2.8393 30.3197 1.68028 29.1607 0.929875 27.7434C0 25.9872 0 23.6715 0 19.04V12.96Z" fill="url(#paint0_linear_350_304)"/>
<path fill-rule="evenodd" clip-rule="evenodd" d="M19.04 0.3125H12.96C10.6389 0.3125 8.91755 0.312759 7.55634 0.427628C6.19897 0.542172 5.22823 0.769004 4.40279 1.20605C3.04089 1.92714 1.92714 3.04089 1.20605 4.40279C0.769004 5.22823 0.542172 6.19897 0.427628 7.55634C0.312759 8.91755 0.3125 10.6389 0.3125 12.96V19.04C0.3125 21.3611 0.312759 23.0825 0.427628 24.4437C0.542172 25.801 0.769004 26.7718 1.20605 27.5972C1.92714 28.9591 3.04089 30.0729 4.40279 30.7939C5.22823 31.231 6.19897 31.4578 7.55634 31.5724C8.91755 31.6872 10.6389 31.6875 12.96 31.6875H19.04C21.3611 31.6875 23.0825 31.6872 24.4437 31.5724C25.801 31.4578 26.7718 31.231 27.5972 30.7939C28.9591 30.0729 30.0729 28.9591 30.7939 27.5972C31.231 26.7718 31.4578 25.801 31.5724 24.4437C31.6872 23.0825 31.6875 21.3611 31.6875 19.04V12.96C31.6875 10.6389 31.6872 8.91755 31.5724 7.55634C31.4578 6.19897 31.231 5.22823 30.7939 4.40279C30.0729 3.04089 28.9591 1.92714 27.5972 1.20605C26.7718 0.769004 25.801 0.542172 24.4437 0.427628C23.0825 0.312759 21.3611 0.3125 19.04 0.3125ZM0.929875 4.25656C0 6.01279 0 8.32853 0 12.96V19.04C0 23.6715 0 25.9872 0.929875 27.7434C1.68028 29.1607 2.8393 30.3197 4.25656 31.0701C6.01279 32 8.32853 32 12.96 32H19.04C23.6715 32 25.9872 32 27.7434 31.0701C29.1607 30.3197 30.3197 29.1607 31.0701 27.7434C32 25.9872 32 23.6715 32 19.04V12.96C32 8.32853 32 6.01279 31.0701 4.25656C30.3197 2.8393 29.1607 1.68028 27.7434 0.929875C25.9872 0 23.6715 0 19.04 0H12.96C8.32853 0 6.01279 0 4.25656 0.929875C2.8393 1.68028 1.68028 2.8393 0.929875 4.25656Z" fill="url(#paint1_radial_350_304)"/>
<g filter="url(#filter0_bd_350_304)">
<path d="M16.0312 26.75C10.1114 26.75 5.3125 21.9511 5.3125 16.0312C5.3125 10.1114 10.1114 5.3125 16.0312 5.3125C21.9511 5.3125 26.75 10.1114 26.75 16.0312C26.75 19.3546 25.9403 21.811 23.6385 23.7242C23.4278 23.8993 23.3807 24.209 23.5431 24.4297L24.7374 26.0533C24.95 26.3422 24.7437 26.75 24.385 26.75H16.0312Z" fill="url(#paint2_radial_350_304)" shape-rendering="crispEdges"/>
</g>
<g filter="url(#filter1_bd_350_304)">
<path fill-rule="evenodd" clip-rule="evenodd" d="M5.625 16.0312C5.625 21.7785 10.284 26.4375 16.0312 26.4375H24.385C24.4875 26.4375 24.5464 26.321 24.4857 26.2384L23.2914 24.6149C23.025 24.2527 23.1088 23.7581 23.4388 23.4838C25.6462 21.6491 26.4375 19.2964 26.4375 16.0312C26.4375 10.284 21.7785 5.625 16.0312 5.625C10.284 5.625 5.625 10.284 5.625 16.0312ZM5.3125 16.0312C5.3125 21.9511 10.1114 26.75 16.0312 26.75H24.385C24.7437 26.75 24.95 26.3422 24.7374 26.0533L23.5431 24.4297C23.3807 24.209 23.4278 23.8993 23.6385 23.7242C25.9403 21.811 26.75 19.3546 26.75 16.0312C26.75 10.1114 21.9511 5.3125 16.0312 5.3125C10.1114 5.3125 5.3125 10.1114 5.3125 16.0312Z" fill="url(#paint3_radial_350_304)" shape-rendering="crispEdges"/>
</g>
<g filter="url(#filter2_b_350_304)">
<path d="M11.8125 11.6875C11.8125 10.9971 12.3721 10.4375 13.0625 10.4375H20.625C21.3154 10.4375 21.875 10.9971 21.875 11.6875C21.875 12.3779 21.3154 12.9375 20.625 12.9375H13.0625C12.3721 12.9375 11.8125 12.3779 11.8125 11.6875Z" fill="url(#paint4_radial_350_304)"/>
</g>
<g filter="url(#filter3_b_350_304)">
<path fill-rule="evenodd" clip-rule="evenodd" d="M20.625 10.5625H13.0625C12.4412 10.5625 11.9375 11.0662 11.9375 11.6875C11.9375 12.3088 12.4412 12.8125 13.0625 12.8125H20.625C21.2463 12.8125 21.75 12.3088 21.75 11.6875C21.75 11.0662 21.2463 10.5625 20.625 10.5625ZM13.0625 10.4375C12.3721 10.4375 11.8125 10.9971 11.8125 11.6875C11.8125 12.3779 12.3721 12.9375 13.0625 12.9375H20.625C21.3154 12.9375 21.875 12.3779 21.875 11.6875C21.875 10.9971 21.3154 10.4375 20.625 10.4375H13.0625Z" fill="url(#paint5_radial_350_304)"/>
</g>
<g filter="url(#filter4_b_350_304)">
<path d="M10.1875 16C10.1875 15.3096 10.7471 14.75 11.4375 14.75H20.625C21.3154 14.75 21.875 15.3096 21.875 16C21.875 16.6904 21.3154 17.25 20.625 17.25H11.4375C10.7471 17.25 10.1875 16.6904 10.1875 16Z" fill="url(#paint6_radial_350_304)"/>
</g>
<g filter="url(#filter5_b_350_304)">
<path fill-rule="evenodd" clip-rule="evenodd" d="M20.625 14.875H11.4375C10.8162 14.875 10.3125 15.3787 10.3125 16C10.3125 16.6213 10.8162 17.125 11.4375 17.125H20.625C21.2463 17.125 21.75 16.6213 21.75 16C21.75 15.3787 21.2463 14.875 20.625 14.875ZM11.4375 14.75C10.7471 14.75 10.1875 15.3096 10.1875 16C10.1875 16.6904 10.7471 17.25 11.4375 17.25H20.625C21.3154 17.25 21.875 16.6904 21.875 16C21.875 15.3096 21.3154 14.75 20.625 14.75H11.4375Z" fill="url(#paint7_radial_350_304)"/>
</g>
<g filter="url(#filter6_b_350_304)">
<path d="M13.0625 20.3125C13.0625 19.6221 13.6221 19.0625 14.3125 19.0625H20.625C21.3154 19.0625 21.875 19.6221 21.875 20.3125C21.875 21.0029 21.3154 21.5625 20.625 21.5625H14.3125C13.6221 21.5625 13.0625 21.0029 13.0625 20.3125Z" fill="url(#paint8_radial_350_304)"/>
</g>
<g filter="url(#filter7_b_350_304)">
<path fill-rule="evenodd" clip-rule="evenodd" d="M20.625 19.1875H14.3125C13.6912 19.1875 13.1875 19.6912 13.1875 20.3125C13.1875 20.9338 13.6912 21.4375 14.3125 21.4375H20.625C21.2463 21.4375 21.75 20.9338 21.75 20.3125C21.75 19.6912 21.2463 19.1875 20.625 19.1875ZM14.3125 19.0625C13.6221 19.0625 13.0625 19.6221 13.0625 20.3125C13.0625 21.0029 13.6221 21.5625 14.3125 21.5625H20.625C21.3154 21.5625 21.875 21.0029 21.875 20.3125C21.875 19.6221 21.3154 19.0625 20.625 19.0625H14.3125Z" fill="url(#paint9_radial_350_304)"/>
</g>
</g>
<defs>
<filter id="filter0_bd_350_304" x="-14.6875" y="-10.6875" width="61.4375" height="61.4375" filterUnits="userSpaceOnUse" color-interpolation-filters="sRGB">
<feFlood flood-opacity="0" result="BackgroundImageFix"/>
<feGaussianBlur in="BackgroundImageFix" stdDeviation="2"/>
<feComposite in2="SourceAlpha" operator="in" result="effect1_backgroundBlur_350_304"/>
<feColorMatrix in="SourceAlpha" type="matrix" values="0 0 0 0 0 0 0 0 0 0 0 0 0 0 0 0 0 0 127 0" result="hardAlpha"/>
<feOffset dy="4"/>
<feGaussianBlur stdDeviation="10"/>
<feComposite in2="hardAlpha" operator="out"/>
<feColorMatrix type="matrix" values="0 0 0 0 0 0 0 0 0 0 0 0 0 0 0 0 0 0 0.1 0"/>
<feBlend mode="normal" in2="effect1_backgroundBlur_350_304" result="effect2_dropShadow_350_304"/>
<feBlend mode="normal" in="SourceGraphic" in2="effect2_dropShadow_350_304" result="shape"/>
</filter>
<filter id="filter1_bd_350_304" x="-14.6875" y="-10.6875" width="61.4375" height="61.4375" filterUnits="userSpaceOnUse" color-interpolation-filters="sRGB">
<feFlood flood-opacity="0" result="BackgroundImageFix"/>
<feGaussianBlur in="BackgroundImageFix" stdDeviation="2"/>
<feComposite in2="SourceAlpha" operator="in" result="effect1_backgroundBlur_350_304"/>
<feColorMatrix in="SourceAlpha" type="matrix" values="0 0 0 0 0 0 0 0 0 0 0 0 0 0 0 0 0 0 127 0" result="hardAlpha"/>
<feOffset dy="4"/>
<feGaussianBlur stdDeviation="10"/>
<feComposite in2="hardAlpha" operator="out"/>
<feColorMatrix type="matrix" values="0 0 0 0 0 0 0 0 0 0 0 0 0 0 0 0 0 0 0.1 0"/>
<feBlend mode="normal" in2="effect1_backgroundBlur_350_304" result="effect2_dropShadow_350_304"/>
<feBlend mode="normal" in="SourceGraphic" in2="effect2_dropShadow_350_304" result="shape"/>
</filter>
<filter id="filter2_b_350_304" x="7.8125" y="6.4375" width="18.0625" height="10.5" filterUnits="userSpaceOnUse" color-interpolation-filters="sRGB">
<feFlood flood-opacity="0" result="BackgroundImageFix"/>
<feGaussianBlur in="BackgroundImageFix" stdDeviation="2"/>
<feComposite in2="SourceAlpha" operator="in" result="effect1_backgroundBlur_350_304"/>
<feBlend mode="normal" in="SourceGraphic" in2="effect1_backgroundBlur_350_304" result="shape"/>
</filter>
<filter id="filter3_b_350_304" x="7.8125" y="6.4375" width="18.0625" height="10.5" filterUnits="userSpaceOnUse" color-interpolation-filters="sRGB">
<feFlood flood-opacity="0" result="BackgroundImageFix"/>
<feGaussianBlur in="BackgroundImageFix" stdDeviation="2"/>
<feComposite in2="SourceAlpha" operator="in" result="effect1_backgroundBlur_350_304"/>
<feBlend mode="normal" in="SourceGraphic" in2="effect1_backgroundBlur_350_304" result="shape"/>
</filter>
<filter id="filter4_b_350_304" x="6.1875" y="10.75" width="19.6875" height="10.5" filterUnits="userSpaceOnUse" color-interpolation-filters="sRGB">
<feFlood flood-opacity="0" result="BackgroundImageFix"/>
<feGaussianBlur in="BackgroundImageFix" stdDeviation="2"/>
<feComposite in2="SourceAlpha" operator="in" result="effect1_backgroundBlur_350_304"/>
<feBlend mode="normal" in="SourceGraphic" in2="effect1_backgroundBlur_350_304" result="shape"/>
</filter>
<filter id="filter5_b_350_304" x="6.1875" y="10.75" width="19.6875" height="10.5" filterUnits="userSpaceOnUse" color-interpolation-filters="sRGB">
<feFlood flood-opacity="0" result="BackgroundImageFix"/>
<feGaussianBlur in="BackgroundImageFix" stdDeviation="2"/>
<feComposite in2="SourceAlpha" operator="in" result="effect1_backgroundBlur_350_304"/>
<feBlend mode="normal" in="SourceGraphic" in2="effect1_backgroundBlur_350_304" result="shape"/>
</filter>
<filter id="filter6_b_350_304" x="9.0625" y="15.0625" width="16.8125" height="10.5" filterUnits="userSpaceOnUse" color-interpolation-filters="sRGB">
<feFlood flood-opacity="0" result="BackgroundImageFix"/>
<feGaussianBlur in="BackgroundImageFix" stdDeviation="2"/>
<feComposite in2="SourceAlpha" operator="in" result="effect1_backgroundBlur_350_304"/>
<feBlend mode="normal" in="SourceGraphic" in2="effect1_backgroundBlur_350_304" result="shape"/>
</filter>
<filter id="filter7_b_350_304" x="9.0625" y="15.0625" width="16.8125" height="10.5" filterUnits="userSpaceOnUse" color-interpolation-filters="sRGB">
<feFlood flood-opacity="0" result="BackgroundImageFix"/>
<feGaussianBlur in="BackgroundImageFix" stdDeviation="2"/>
<feComposite in2="SourceAlpha" operator="in" result="effect1_backgroundBlur_350_304"/>
<feBlend mode="normal" in="SourceGraphic" in2="effect1_backgroundBlur_350_304" result="shape"/>
</filter>
<linearGradient id="paint0_linear_350_304" x1="16" y1="0" x2="16" y2="32" gradientUnits="userSpaceOnUse">
<stop stop-color="#1C8DF4"/>
<stop offset="1" stop-color="#21B6E5"/>
</linearGradient>
<radialGradient id="paint1_radial_350_304" cx="0" cy="0" r="1" gradientUnits="userSpaceOnUse" gradientTransform="translate(2.5 2.0625) rotate(45.9753) scale(40.2446)">
<stop offset="0.387814" stop-color="#5FD8FE" stop-opacity="0.6"/>
<stop offset="1" stop-color="#22B3E7" stop-opacity="0"/>
</radialGradient>
<radialGradient id="paint2_radial_350_304" cx="0" cy="0" r="1" gradientUnits="userSpaceOnUse" gradientTransform="translate(10.7188 9.78125) rotate(54.8916) scale(18.9089)">
<stop stop-color="white"/>
<stop offset="1" stop-color="white" stop-opacity="0.95"/>
</radialGradient>
<radialGradient id="paint3_radial_350_304" cx="0" cy="0" r="1" gradientUnits="userSpaceOnUse" gradientTransform="translate(9.75 8.3125) rotate(55.1543) scale(24.065)">
<stop stop-color="white"/>
<stop offset="1" stop-color="white" stop-opacity="0"/>
</radialGradient>
<radialGradient id="paint4_radial_350_304" cx="0" cy="0" r="1" gradientUnits="userSpaceOnUse" gradientTransform="translate(12.6129 11.4481) rotate(3.16558) scale(8.78951 2.30017)">
<stop stop-color="#21B6E5" stop-opacity="0.6"/>
<stop offset="1" stop-color="#0881F0" stop-opacity="0.7"/>
</radialGradient>
<radialGradient id="paint5_radial_350_304" cx="0" cy="0" r="1" gradientUnits="userSpaceOnUse" gradientTransform="translate(11.8125 10.625) rotate(9.30909) scale(8.69342 32.9074)">
<stop stop-color="#B8EEFF" stop-opacity="0.6"/>
<stop offset="1" stop-color="#21B6E5" stop-opacity="0"/>
</radialGradient>
<radialGradient id="paint6_radial_350_304" cx="0" cy="0" r="1" gradientUnits="userSpaceOnUse" gradientTransform="translate(11.1172 15.7606) rotate(2.72617) scale(10.2049 2.30107)">
<stop stop-color="#21B6E5" stop-opacity="0.6"/>
<stop offset="1" stop-color="#0881F0" stop-opacity="0.7"/>
</radialGradient>
<radialGradient id="paint7_radial_350_304" cx="0" cy="0" r="1" gradientUnits="userSpaceOnUse" gradientTransform="translate(10.3867 14.75) rotate(9.30369) scale(9.8582 40.9621)">
<stop stop-color="#65DAFF"/>
<stop offset="1" stop-color="#B8EEFF" stop-opacity="0"/>
</radialGradient>
<radialGradient id="paint8_radial_350_304" cx="0" cy="0" r="1" gradientUnits="userSpaceOnUse" gradientTransform="translate(13.7635 20.0731) rotate(3.61349) scale(7.70121 2.2991)">
<stop stop-color="#21B6E5" stop-opacity="0.6"/>
<stop offset="1" stop-color="#0881F0" stop-opacity="0.7"/>
</radialGradient>
<radialGradient id="paint9_radial_350_304" cx="0" cy="0" r="1" gradientUnits="userSpaceOnUse" gradientTransform="translate(13.375 19.4375) rotate(11.8763) scale(7.44052 26.2278)">
<stop stop-color="#89E3FF"/>
<stop offset="1" stop-color="#B8EEFF" stop-opacity="0"/>
</radialGradient>
<clipPath id="clip0_350_304">
<rect width="32" height="32" fill="white"/>
</clipPath>
</defs>
</svg>
