<svg width="1440" height="484" viewBox="0 0 1440 484" fill="none" xmlns="http://www.w3.org/2000/svg">
<path fill-rule="evenodd" clip-rule="evenodd" d="M529 556C615.134 556 692.118 516.828 743.111 455.327C769.795 553.114 859.253 625 965.5 625C1065.84 625 1151.21 560.881 1182.87 471.38C1215 488.376 1251.62 498 1290.5 498C1417.8 498 1521 394.802 1521 267.5C1521 140.198 1417.8 37 1290.5 37C1190.16 37 1104.79 101.119 1073.13 190.62C1041 173.624 1004.38 164 965.5 164C902.118 164 844.711 189.582 803.041 230.985C780.702 99.8396 666.51 0 529 0C405.075 0 300.088 81.0868 264.203 193.098C222.5 133.771 153.528 95 75.5 95C-51.8016 95 -155 198.198 -155 325.5C-155 452.802 -51.8016 556 75.5 556C170.7 556 252.42 498.287 287.581 415.939C335.496 499.618 425.664 556 529 556Z" fill="#F3F8FF"/>
<path fill-rule="evenodd" clip-rule="evenodd" d="M529 556C615.134 556 692.118 516.828 743.111 455.327C769.795 553.114 859.253 625 965.5 625C1065.84 625 1151.21 560.881 1182.87 471.38C1215 488.376 1251.62 498 1290.5 498C1417.8 498 1521 394.802 1521 267.5C1521 140.198 1417.8 37 1290.5 37C1190.16 37 1104.79 101.119 1073.13 190.62C1041 173.624 1004.38 164 965.5 164C902.118 164 844.711 189.582 803.041 230.985C780.702 99.8396 666.51 0 529 0C405.075 0 300.088 81.0868 264.203 193.098C222.5 133.771 153.528 95 75.5 95C-51.8016 95 -155 198.198 -155 325.5C-155 452.802 -51.8016 556 75.5 556C170.7 556 252.42 498.287 287.581 415.939C335.496 499.618 425.664 556 529 556Z" fill="url(#paint0_linear_2750_3852)" fill-opacity="0.2"/>
<defs>
<linearGradient id="paint0_linear_2750_3852" x1="700" y1="-64" x2="700" y2="556" gradientUnits="userSpaceOnUse">
<stop stop-color="white"/>
<stop offset="1" stop-color="#00C2FF"/>
<stop offset="1" stop-color="#EBF8FF"/>
</linearGradient>
</defs>
</svg>
