<svg width="1440" height="697" viewBox="0 0 1440 697" fill="none" xmlns="http://www.w3.org/2000/svg">
<path fill-rule="evenodd" clip-rule="evenodd" d="M1110.91 464.922C1084.79 474.671 1056.52 480 1027 480C894.452 480 787 372.548 787 240C787 107.452 894.452 0 1027 0C1145.22 0 1243.47 85.4739 1263.34 197.994C1299.06 180.698 1339.15 171 1381.5 171C1531.45 171 1653 292.555 1653 442.5C1653 592.445 1531.45 714 1381.5 714C1239.1 714 1122.31 604.378 1110.91 464.922ZM406.485 479.748C355.371 571.745 257.206 634 144.5 634C-20.9093 634 -155 499.909 -155 334.5C-155 169.091 -20.9093 35 144.5 35C248.702 35 340.475 88.2148 394.126 168.951C434.948 123.551 494.14 95 560 95C683.159 95 783 194.84 783 318C783 441.159 683.159 541 560 541C500.514 541 446.468 517.708 406.485 479.748Z" fill="#CAE4FF"/>
<path fill-rule="evenodd" clip-rule="evenodd" d="M1110.91 464.922C1084.79 474.671 1056.52 480 1027 480C894.452 480 787 372.548 787 240C787 107.452 894.452 0 1027 0C1145.22 0 1243.47 85.4739 1263.34 197.994C1299.06 180.698 1339.15 171 1381.5 171C1531.45 171 1653 292.555 1653 442.5C1653 592.445 1531.45 714 1381.5 714C1239.1 714 1122.31 604.378 1110.91 464.922ZM406.485 479.748C355.371 571.745 257.206 634 144.5 634C-20.9093 634 -155 499.909 -155 334.5C-155 169.091 -20.9093 35 144.5 35C248.702 35 340.475 88.2148 394.126 168.951C434.948 123.551 494.14 95 560 95C683.159 95 783 194.84 783 318C783 441.159 683.159 541 560 541C500.514 541 446.468 517.708 406.485 479.748Z" fill="url(#paint0_linear_2750_3847)" fill-opacity="0.2"/>
<defs>
<linearGradient id="paint0_linear_2750_3847" x1="749" y1="0" x2="749" y2="714" gradientUnits="userSpaceOnUse">
<stop stop-color="#FFFBFB"/>
<stop offset="1" stop-color="#1DB9FF"/>
</linearGradient>
</defs>
</svg>
